<?xml version="1.0" encoding="UTF-8"?>
<svg id="Layer_2" data-name="Layer 2" xmlns="http://www.w3.org/2000/svg" viewBox="0 0 46.7 45.85">
  <defs>
    <style>
      .cls-1 {
        fill: #e8962f;
      }
    </style>
  </defs>
  <g id="Layer_1-2" data-name="Layer 1">
    <path class="cls-1" d="m46.7,0v8.56c0,3.51-.46,6.87-1.38,10.08-.92,3.21-2.51,6.06-4.77,8.56-1.95,2.28-4.44,4.1-7.49,5.43-3.05,1.34-6.68,2.01-10.89,2.01h-.63l.16,5.93v5.27H.47v-2.83L0,2.44V0h21.22v5.4l.16,5.8v2.47c0,.77.05,1.42.16,1.94,0,.83.03,1.43.08,1.78.05.35.24.53.55.53.42,0,.84-.27,1.26-.82.42-.55.83-1.26,1.22-2.14.39-.88.67-1.84.83-2.9s.24-2.02.24-2.9v-.66l-.16-8.5h21.14ZM15.38,40.58l-.16-12.12c1.74.53,3.84.79,6.31.79,3.21,0,5.94-.49,8.2-1.48,2.26-.99,4.15-2.34,5.68-4.05,1.63-1.89,2.84-4.14,3.63-6.75.79-2.61,1.24-5.43,1.34-8.47v-3.1h-8.36v4.28c0,1.71-.22,3.32-.67,4.81-.45,1.49-.99,2.77-1.62,3.82-.84,1.45-1.85,2.58-3.04,3.39-1.18.81-2.48,1.22-3.9,1.22-.84,0-1.62-.04-2.33-.13-.71-.09-1.33-.24-1.85-.46-.53-.22-1.01-.54-1.46-.96-.45-.42-.83-.98-1.14-1.68-.21-.57-.39-1.25-.55-2.04s-.26-1.59-.32-2.4c-.05-.81-.08-1.62-.08-2.44s-.05-1.55-.16-2.21v-5.2H6.31l.47,35.18h8.6Z"/>
  </g>
</svg>