<?xml version="1.0" encoding="UTF-8"?>
<svg id="Layer_2" data-name="Layer 2" xmlns="http://www.w3.org/2000/svg" viewBox="0 0 654.49 361.33">
  <defs>
    <style>
      .cls-1 {
        fill: #272262;
      }

      .cls-2 {
        fill: #e8962f;
      }

      .cls-3 {
        fill: #2f353e;
      }
    </style>
  </defs>
  <g id="Layer_1-2" data-name="Layer 1">
    <path class="cls-2" d="m0,361.33h530.91c40.93,0,74.12-33.18,74.12-74.12V0s-530.91,0-530.91,0C33.18,0,0,33.18,0,74.12v287.22Z"/>
    <path class="cls-1" d="m641.99,315.74c-6.9,0-12.51-5.61-12.51-12.51s5.61-12.51,12.51-12.51,12.51,5.61,12.51,12.51-5.61,12.51-12.51,12.51Zm0-20.5c-4.41,0-8,3.59-8,8s3.59,8,8,8,8-3.59,8-8-3.59-8-8-8Z"/>
    <g>
      <path class="cls-3" d="m101.24,319.88l3.41-1.35c.77,1.95,1.27,3.59,1.49,4.91.18.44.34.75.5.94.16.19.42.34.78.44.36.1.89.15,1.58.15v3.66c-1.06,0-2.01-.15-2.84-.45-.75,3.68-3.42,6.38-8.01,8.1l-1.25-3.44c2.07-.72,3.56-1.64,4.46-2.74s1.36-2.48,1.36-4.12c0-.83-.13-1.79-.4-2.89s-.62-2.17-1.08-3.22Zm-1.14-5.58l2.48-2.48,2.48,2.48-2.48,2.48-2.48-2.48Z"/>
      <path class="cls-3" d="m104.96,333.54l2.48-2.48,2.48,2.48-2.48,2.48-2.48-2.48Zm4.06-8.57c.74,0,1.38-.08,1.93-.26s.87-.33.99-.49c.44-.51.66-1.45.66-2.81,0-.58-.1-1.33-.29-2.26s-.43-1.8-.7-2.62l3.49-1.13c.78,2.24,1.17,4.24,1.17,6.01,0,2.24-.5,3.96-1.51,5.16-1.16,1.38-3.07,2.07-5.73,2.07-.51,0-.94-.18-1.3-.54-.36-.36-.53-.79-.53-1.3s.18-.94.53-1.3.79-.54,1.3-.54Zm.79,8.57l2.48-2.48,2.48,2.48-2.48,2.48-2.48-2.48Z"/>
      <path class="cls-3" d="m122.51,308.7v13.48c0,1.09.14,1.81.42,2.15.36.43,1.3.64,2.81.64v3.66c-2.47,0-4.3-.66-5.48-1.99-.95-1.08-1.42-2.57-1.42-4.47v-13.48h3.66Z"/>
      <path class="cls-3" d="m147.5,322.88c0,1.64-.48,3.01-1.44,4.11-.96,1.1-2.22,1.65-3.79,1.65-1.43,0-2.64-.51-3.63-1.52-1,1.02-2.21,1.52-3.63,1.52-.8,0-1.54-.17-2.22-.5s-1.25-.78-1.71-1.35c-1.25,1.23-3.03,1.85-5.33,1.85-.51,0-.94-.18-1.3-.54-.36-.36-.53-.79-.53-1.3s.18-.94.53-1.3.79-.54,1.3-.54c1.55,0,2.58-.3,3.08-.89.48-.59.72-1.84.72-3.75v-1.49h3.66v2.7c0,.68.07,1.29.21,1.82.14.53.32.92.52,1.15.16.18.3.3.44.37s.35.1.63.1.49-.03.63-.1.28-.19.44-.37c.21-.23.38-.62.52-1.15.14-.53.21-1.14.21-1.82v-2.7h3.66v2.7c0,.68.07,1.29.21,1.82.14.53.32.92.52,1.15.16.18.3.3.44.37s.35.1.63.1c.33,0,.58-.04.73-.12s.3-.21.42-.41c.27-.38.41-.9.41-1.57,0-.26-.03-.58-.09-.95l-.69-4.45,3.63-.54.69,4.44c.08.52.12,1.02.12,1.51Z"/>
      <path class="cls-3" d="m179.6,317.12l.15.53c.1.35.16.56.18.62s.07.26.15.59.14.55.17.67.07.32.13.61.1.51.12.68.04.37.06.59.03.43.03.63c0,.85-.13,1.61-.4,2.29s-.62,1.24-1.05,1.69c-.43.46-.98.85-1.66,1.18s-1.35.59-2.01.77c-.66.18-1.44.32-2.33.42-.89.1-1.69.17-2.4.2s-1.52.04-2.42.04-1.72-.01-2.42-.04-1.51-.09-2.4-.2c-.89-.1-1.67-.24-2.33-.42-.66-.18-1.33-.43-2.01-.76s-1.23-.72-1.66-1.17c-.43-.46-.78-1.02-1.05-1.7s-.41-1.44-.41-2.29c0-1.11.33-2.75,1-4.92l3.56.95c-.34,1.14-.59,2.04-.75,2.7-.1.4-.15.83-.15,1.27,0,.68.27,1.24.81,1.66s1.44.74,2.71.95,2.97.32,5.11.32,3.84-.11,5.1-.32,2.17-.53,2.7-.95.81-.97.81-1.66c0-.5-.04-.92-.13-1.27-.25-.99-.5-1.88-.75-2.7l3.56-.95Zm-16.2-.59l2.48-2.48,2.48,2.48-2.48,2.48-2.48-2.48Zm4.85,0l2.48-2.48,2.48,2.48-2.48,2.48-2.48-2.48Z"/>
      <path class="cls-3" d="m186.83,308.7v13.48c0,1.09.14,1.81.42,2.15.36.43,1.3.64,2.81.64v3.66c-2.47,0-4.3-.66-5.48-1.99-.95-1.08-1.42-2.57-1.42-4.47v-13.48h3.66Z"/>
      <path class="cls-3" d="m190.07,324.97h1.35c1.4,0,2.44-.05,3.13-.15.69-.1,1.14-.25,1.35-.43s.32-.47.32-.85c0-.51-.34-1.26-1.01-2.26-.67-1-1.53-2.03-2.56-3.1s-2.03-1.94-3.01-2.64v-3.19c4.12-2.61,8.41-4.38,12.86-5.3l.73,3.59c-3.4.67-6.55,1.84-9.46,3.49.8.67,1.54,1.36,2.2,2.05s1.31,1.45,1.93,2.27,1.1,1.67,1.45,2.55.53,1.73.53,2.55c0,.69-.11,1.31-.32,1.85-.21.54-.47.99-.78,1.34s-.72.65-1.23.91-.99.44-1.43.56c-.44.12-.98.22-1.63.29-.64.07-1.17.11-1.57.12s-.9.01-1.51.01h-1.35c-.51,0-.94-.18-1.3-.54-.36-.36-.53-.79-.53-1.3s.18-.94.53-1.3.79-.54,1.3-.54Z"/>
      <path class="cls-3" d="m227,308.73h3.66v11.6c0,1.84.26,3.08.78,3.72.51.62,1.5.92,2.99.92v3.66c-1.51,0-2.81-.25-3.88-.76-.19,1.32-.57,2.5-1.17,3.56s-1.31,1.91-2.15,2.56-1.75,1.15-2.74,1.49-2,.51-3.05.51c-.86,0-1.71-.11-2.56-.33-.84-.22-1.65-.56-2.42-1.01-.77-.45-1.45-.99-2.04-1.62s-1.06-1.38-1.41-2.25-.52-1.81-.52-2.82c0-2.29.83-4.98,2.5-8.04l3.19,1.79c-.64,1.17-1.15,2.31-1.5,3.41s-.53,2.05-.53,2.84c0,1.26.51,2.3,1.53,3.13,1.02.82,2.27,1.24,3.74,1.24.73,0,1.42-.11,2.05-.34s1.22-.57,1.76-1.04.96-1.12,1.27-1.96.47-1.82.47-2.94v-17.33Z"/>
      <path class="cls-3" d="m230.38,333.54l2.48-2.48,2.48,2.48-2.48,2.48-2.48-2.48Zm4.06-8.57c.74,0,1.38-.08,1.93-.26s.87-.33.99-.49c.44-.51.66-1.45.66-2.81,0-.58-.1-1.33-.29-2.26s-.43-1.8-.7-2.62l3.49-1.13c.78,2.24,1.17,4.24,1.17,6.01,0,2.24-.5,3.96-1.51,5.16-1.16,1.38-3.07,2.07-5.73,2.07-.51,0-.94-.18-1.3-.54-.36-.36-.53-.79-.53-1.3s.18-.94.53-1.3.79-.54,1.3-.54Zm.79,8.57l2.48-2.48,2.48,2.48-2.48,2.48-2.48-2.48Z"/>
      <path class="cls-3" d="m247.93,308.7v13.48c0,1.09.14,1.81.42,2.15.36.43,1.3.64,2.81.64v3.66c-2.47,0-4.3-.66-5.48-1.99-.95-1.08-1.42-2.57-1.42-4.47v-13.48h3.66Z"/>
      <path class="cls-3" d="m251.17,324.97c.74,0,1.38-.08,1.93-.26s.87-.33.99-.49c.44-.51.66-1.45.66-2.81,0-.58-.1-1.33-.29-2.26s-.43-1.8-.7-2.62l3.49-1.13c.78,2.24,1.17,4.24,1.17,6.01,0,2.24-.5,3.96-1.51,5.16-1.16,1.38-3.07,2.07-5.73,2.07-.51,0-.94-.18-1.3-.54-.36-.36-.53-.79-.53-1.3s.18-.94.53-1.3.79-.54,1.3-.54Zm-.54,8.57l2.48-2.48,2.48,2.48-2.48,2.48-2.48-2.48Z"/>
      <path class="cls-3" d="m271.3,328.63c-.5,1.92-1.62,3.49-3.35,4.7s-4.02,2.17-6.86,2.89l-.91-3.54c3.86-.97,6.26-2.31,7.21-4.04h-1.49c-.59,0-1.15-.06-1.69-.18s-1.07-.31-1.58-.57-.96-.59-1.34-.98-.69-.88-.92-1.48-.34-1.25-.34-1.98c0-.79.13-1.59.38-2.39s.61-1.54,1.07-2.22c.46-.68,1.05-1.23,1.78-1.66s1.52-.64,2.38-.64c.66,0,1.27.11,1.83.34s1.03.51,1.41.86.72.78,1.03,1.29.54,1.01.72,1.5.34,1.03.47,1.62.22,1.09.28,1.51.1.86.14,1.32h.83v3.66h-1.04Zm-3.47-3.66c-.16-1.41-.46-2.55-.91-3.44s-.91-1.33-1.38-1.33-.87.3-1.27.89-.59,1.34-.59,2.23c0,.63.16,1.07.47,1.3s.89.35,1.74.35h1.93Z"/>
      <path class="cls-3" d="m272.34,324.97c.63,0,1.09-.1,1.36-.3.27-.2.58-.66.92-1.37.17-.33.4-.91.7-1.73.23-.64.52-1.24.85-1.79s.73-1.06,1.21-1.54c.47-.48,1.04-.87,1.69-1.14.65-.28,1.36-.42,2.12-.42.9,0,1.72.21,2.46.62s1.34.94,1.79,1.58.81,1.34,1.05,2.09c.25.75.37,1.49.37,2.22,0,1.46-.49,2.74-1.46,3.82s-2.17,1.63-3.59,1.63c-1.66,0-3.32-.68-4.97-2.04-1.14,1.36-2.65,2.04-4.53,2.04-.51,0-.94-.18-1.3-.54-.36-.36-.53-.79-.53-1.3s.18-.94.53-1.3.79-.54,1.3-.54Zm6.28-1.74c.42.45.96.85,1.63,1.21.66.36,1.19.54,1.58.54.3,0,.61-.17.92-.51.31-.34.47-.76.47-1.28,0-.76-.22-1.43-.67-1.99s-.9-.85-1.35-.85c-1.01,0-1.82.83-2.43,2.5l-.15.38Z"/>
      <path class="cls-3" d="m302.06,327.89c0,1.35.56,2.43,1.68,3.24s2.64,1.22,4.56,1.22c1.42,0,2.69-.22,3.81-.67s2.01-1.1,2.67-1.98c.66-.88.99-1.89.99-3.05,0-.96-.23-2.03-.69-3.22l-1.45-3.74,3.43-1.32,1.82,4.66c.21.55.42.94.61,1.19s.51.43.95.57,1.09.21,1.94.21v3.66c-1.19,0-2.22-.14-3.08-.42-.22,1.3-.7,2.46-1.44,3.48s-1.62,1.84-2.65,2.45c-1.04.61-2.14,1.07-3.32,1.38s-2.38.47-3.6.47c-.98,0-1.93-.1-2.87-.31s-1.83-.53-2.69-.96c-.85-.44-1.6-.96-2.24-1.59s-1.15-1.39-1.53-2.29-.57-1.89-.57-2.97c0-2.69,1.1-5.79,3.3-9.32l3.08,1.9c-.82,1.33-1.48,2.65-1.97,3.97s-.74,2.47-.74,3.44Zm4.39-4.51l2.48-2.48,2.48,2.48-2.48,2.48-2.48-2.48Z"/>
      <path class="cls-3" d="m338.9,324.97c.58,0,.97-.18,1.19-.54.21-.36.32-.88.32-1.56,0-.74-.11-1.74-.32-2.99l-.4-2.42,3.63-.54.53,3.44c.16,1.04.34,1.88.55,2.55s.5,1.15.87,1.45c.51.4,1.35.6,2.52.6v3.66c-2.17,0-3.86-.55-5.08-1.64-.99,1.09-2.26,1.64-3.81,1.64-1.45,0-2.66-.5-3.63-1.51-.99,1.01-2.2,1.51-3.63,1.51-.8,0-1.54-.17-2.22-.5s-1.25-.78-1.71-1.35c-1.25,1.23-3.03,1.85-5.33,1.85-.51,0-.94-.18-1.3-.54-.36-.36-.53-.79-.53-1.3s.18-.94.53-1.3.79-.54,1.3-.54c1.55,0,2.58-.3,3.08-.89.48-.59.72-1.84.72-3.75v-1.49h3.66v2.7c0,.68.07,1.29.21,1.82.14.53.32.92.52,1.15.16.18.3.3.44.37s.35.1.63.1c.37,0,.68-.1.94-.29s.44-.47.56-.83.2-.72.24-1.08c.04-.36.07-.77.07-1.24v-2.7h3.66v2.7c0,.62.07,1.21.2,1.75.13.54.31.95.54,1.22.16.19.3.31.44.37.14.06.35.1.63.1Zm-8.53-10.84l2.48-2.48,2.48,2.48-2.48,2.48-2.48-2.48Zm2.42-4.16l2.48-2.48,2.48,2.48-2.48,2.48-2.48-2.48Zm2.43,4.16l2.48-2.48,2.48,2.48-2.48,2.48-2.48-2.48Z"/>
      <path class="cls-3" d="m343.29,333.54l2.48-2.48,2.48,2.48-2.48,2.48-2.48-2.48Zm4.51-8.57c1.39,0,2.34-.26,2.87-.79.62-.62.92-1.9.92-3.85v-1.49h3.66v1.49c0,1.91.29,3.18.86,3.81.52.56,1.49.83,2.92.83v3.66c-2.4,0-4.27-.68-5.61-2.05-1.3,1.37-3.17,2.05-5.62,2.05-.51,0-.94-.18-1.3-.54-.36-.36-.53-.79-.53-1.3s.18-.94.53-1.3.79-.54,1.3-.54Zm.34,8.57l2.48-2.48,2.48,2.48-2.48,2.48-2.48-2.48Z"/>
      <path class="cls-3" d="m359.03,324.97h1.35c1.4,0,2.44-.05,3.13-.15.69-.1,1.14-.25,1.35-.43s.32-.47.32-.85c0-.51-.34-1.26-1.01-2.26-.67-1-1.53-2.03-2.56-3.1s-2.03-1.94-3.01-2.64v-3.19c4.12-2.61,8.41-4.38,12.86-5.3l.73,3.59c-3.45.72-6.6,1.88-9.46,3.49.93.78,1.77,1.58,2.53,2.38.76.81,1.47,1.72,2.12,2.73s1.08,1.99,1.3,2.93c.19.51.33.88.43,1.11s.24.49.42.76.38.46.6.56c.22.1.5.19.83.26.34.07.75.11,1.25.11v3.66c-1.96,0-3.55-.55-4.76-1.64-.42.38-.92.69-1.49.93-.57.24-1.22.41-1.93.5s-1.32.15-1.8.18-1.1.04-1.85.04h-1.35c-.51,0-.94-.18-1.3-.54-.36-.36-.53-.79-.53-1.3s.18-.94.53-1.3.79-.54,1.3-.54Z"/>
      <path class="cls-3" d="m367.71,333.54l2.48-2.48,2.48,2.48-2.48,2.48-2.48-2.48Zm4.51-8.57c1.39,0,2.34-.26,2.87-.79.62-.62.92-1.9.92-3.85v-1.49h3.66v1.49c0,1.91.29,3.18.86,3.81.52.56,1.49.83,2.92.83v3.66c-2.4,0-4.27-.68-5.61-2.05-1.3,1.37-3.17,2.05-5.62,2.05-.51,0-.94-.18-1.3-.54-.36-.36-.53-.79-.53-1.3s.18-.94.53-1.3.79-.54,1.3-.54Zm.34,8.57l2.48-2.48,2.48,2.48-2.48,2.48-2.48-2.48Z"/>
      <path class="cls-3" d="m383.44,324.97c1.26,0,2.11-.25,2.55-.75.46-.58.69-1.67.69-3.27v-12.23h3.66v12.23c0,1.61.23,2.7.69,3.27.42.5,1.27.75,2.55.75v3.66c-2.22,0-3.91-.58-5.07-1.74-1.16,1.16-2.85,1.74-5.07,1.74-.51,0-.94-.18-1.3-.54-.36-.36-.53-.79-.53-1.3s.18-.94.53-1.3.79-.54,1.3-.54Z"/>
      <path class="cls-3" d="m389.51,333.53l2.48-2.48,2.48,2.48-2.48,2.48-2.48-2.48Zm4.09-8.55c.74,0,1.38-.08,1.93-.26s.87-.33.99-.49c.44-.51.66-1.45.66-2.81,0-.58-.1-1.33-.29-2.26s-.43-1.8-.7-2.62l3.49-1.13c.78,2.24,1.17,4.24,1.17,6.01,0,2.24-.5,3.96-1.51,5.16-1.16,1.38-3.07,2.07-5.73,2.07-.51,0-.94-.18-1.3-.54-.36-.36-.53-.79-.53-1.3s.18-.94.53-1.3.79-.54,1.3-.54Zm-1.66,12.71l2.48-2.48,2.48,2.48-2.48,2.48-2.48-2.48Zm2.42-4.16l2.48-2.48,2.48,2.48-2.48,2.48-2.48-2.48Z"/>
      <path class="cls-3" d="m407.09,328.59h-3.66v-19.86h3.66v19.86Z"/>
      <path class="cls-3" d="m437.58,318.54l1.44,3.75c.67,1.79,1.49,2.68,2.46,2.68.31,0,.64-.18.98-.55.34-.37.59-1,.75-1.91l.59-3.68,3.6.59-.44,2.78c-.02.14-.03.39-.03.76,0,.8.15,1.34.45,1.6s.73.4,1.28.4c.61,0,1.03-.19,1.27-.56.24-.38.37-1.1.37-2.17,0-1.28-.28-2.77-.85-4.47l3.52-1.1c.66,1.92,1,3.78,1,5.57,0,.6-.05,1.18-.15,1.74s-.28,1.13-.54,1.71c-.26.57-.58,1.07-.97,1.5s-.9.78-1.52,1.05c-.62.27-1.33.4-2.11.4-1.46,0-2.71-.49-3.75-1.48-.97.99-2.11,1.48-3.43,1.48-.55,0-1.1-.1-1.66-.29-.21,1.27-.65,2.4-1.34,3.41-.69,1-1.52,1.8-2.5,2.4-.98.6-2.02,1.05-3.14,1.36-1.12.31-2.26.46-3.43.46-.97,0-1.91-.1-2.83-.31s-1.8-.53-2.64-.97-1.58-.98-2.21-1.62-1.14-1.41-1.51-2.32c-.37-.91-.56-1.92-.56-3.01,0-2.84,1.51-6.06,4.54-9.65l2.78,2.34c-1.21,1.45-2.12,2.81-2.74,4.09s-.92,2.35-.92,3.22c0,1.42.55,2.53,1.64,3.35s2.58,1.22,4.45,1.22c2.03,0,3.68-.48,4.96-1.44,1.27-.96,1.91-2.31,1.91-4.05,0-.92-.23-1.99-.69-3.21l-1.44-3.75,3.43-1.32Zm1.85-4.41l2.48-2.48,2.48,2.48-2.48,2.48-2.48-2.48Zm2.42-4.16l2.48-2.48,2.48,2.48-2.48,2.48-2.48-2.48Zm2.43,4.16l2.48-2.48,2.48,2.48-2.48,2.48-2.48-2.48Z"/>
      <path class="cls-3" d="m457.37,319.88l3.41-1.35c1.15,2.96,1.73,5.44,1.73,7.46,0,2.41-.7,4.48-2.1,6.2-1.4,1.72-3.44,3.09-6.13,4.09l-1.25-3.44c2.07-.72,3.56-1.64,4.46-2.74s1.36-2.48,1.36-4.12c0-.83-.13-1.79-.4-2.89s-.62-2.17-1.08-3.22Zm-1.14-5.89l2.48-2.48,2.48,2.48-2.48,2.48-2.48-2.48Z"/>
      <path class="cls-3" d="m475.41,328.63c-.5,1.92-1.62,3.49-3.35,4.7s-4.02,2.17-6.86,2.89l-.91-3.54c3.86-.97,6.26-2.31,7.21-4.04h-1.49c-.59,0-1.15-.06-1.69-.18s-1.07-.31-1.58-.57-.96-.59-1.34-.98-.69-.88-.92-1.48-.34-1.25-.34-1.98c0-.79.13-1.59.38-2.39s.61-1.54,1.07-2.22c.46-.68,1.05-1.23,1.78-1.66s1.52-.64,2.38-.64c.66,0,1.27.11,1.83.34s1.03.51,1.41.86.72.78,1.03,1.29.54,1.01.72,1.5.34,1.03.47,1.62.22,1.09.28,1.51.1.86.14,1.32h.83v3.66h-1.04Zm-3.47-3.66c-.16-1.41-.46-2.55-.91-3.44s-.91-1.33-1.38-1.33-.87.3-1.27.89-.59,1.34-.59,2.23c0,.63.16,1.07.47,1.3s.89.35,1.74.35h1.93Z"/>
      <path class="cls-3" d="m476.45,324.97c.63,0,1.09-.1,1.36-.3.27-.2.58-.66.92-1.37.17-.33.4-.91.7-1.73.23-.64.52-1.24.85-1.79s.73-1.06,1.21-1.54c.47-.48,1.04-.87,1.69-1.14.65-.28,1.36-.42,2.12-.42.9,0,1.72.21,2.46.62s1.34.94,1.79,1.58.81,1.34,1.05,2.09c.25.75.37,1.49.37,2.22,0,1.46-.49,2.74-1.46,3.82s-2.17,1.63-3.59,1.63c-1.66,0-3.32-.68-4.97-2.04-1.14,1.36-2.65,2.04-4.53,2.04-.51,0-.94-.18-1.3-.54-.36-.36-.53-.79-.53-1.3s.18-.94.53-1.3.79-.54,1.3-.54Zm6.28-1.74c.42.45.96.85,1.63,1.21.66.36,1.19.54,1.58.54.3,0,.61-.17.92-.51.31-.34.47-.76.47-1.28,0-.76-.22-1.43-.67-1.99s-.9-.85-1.35-.85c-1.01,0-1.82.83-2.43,2.5l-.15.38Z"/>
      <path class="cls-3" d="m502.39,305.94c-.71.85-1.4,1.47-2.06,1.88s-1.43.6-2.31.6c-.76,0-1.62-.16-2.56-.48-.86-.29-1.44-.44-1.73-.44-.36,0-.66.1-.9.3-.24.2-.64.66-1.19,1.37l-2.29-1.85c.35-.43.66-.78.92-1.05s.57-.55.93-.82.75-.48,1.17-.61c.42-.13.87-.2,1.36-.2.69,0,1.54.16,2.55.48.92.29,1.5.44,1.74.44.41,0,.74-.09,1-.28s.63-.59,1.14-1.22l2.23,1.88Zm-4.69,22.65h-3.66v-18.06h3.66v18.06Z"/>
    </g>
  </g>
</svg>