<?xml version="1.0" encoding="UTF-8"?>
<svg id="Layer_2" data-name="Layer 2" xmlns="http://www.w3.org/2000/svg" viewBox="0 0 198.26 142.79">
  <defs>
    <style>
      .cls-1 {
        fill: #272262;
      }
    </style>
  </defs>
  <g id="Layer_1-2" data-name="Layer 1">
    <g>
      <g>
        <g>
          <rect class="cls-1" x="108.41" y="137.05" width="10.13" height="2.53" transform="translate(-64.57 120.76) rotate(-45)"/>
          <rect class="cls-1" x="112.21" y="133.25" width="2.53" height="10.13" transform="translate(-64.57 120.78) rotate(-45.01)"/>
        </g>
        <g>
          <rect class="cls-1" x="108.41" y="110.29" width="10.13" height="2.53" transform="translate(-45.64 112.91) rotate(-45)"/>
          <rect class="cls-1" x="112.21" y="106.48" width="2.53" height="10.13" transform="translate(-45.64 112.94) rotate(-45.01)"/>
        </g>
        <g>
          <rect class="cls-1" x="108.41" y="83.52" width="10.13" height="2.53" transform="translate(-26.71 105.08) rotate(-45)"/>
          <rect class="cls-1" x="112.21" y="79.71" width="2.53" height="10.13" transform="translate(-26.71 105.08) rotate(-45)"/>
        </g>
        <g>
          <rect class="cls-1" x="108.41" y="56.75" width="10.14" height="2.53" transform="translate(-7.78 97.24) rotate(-45)"/>
          <rect class="cls-1" x="112.21" y="52.95" width="2.53" height="10.14" transform="translate(-7.78 97.23) rotate(-45)"/>
        </g>
        <g>
          <rect class="cls-1" x="108.41" y="29.98" width="10.14" height="2.53" transform="translate(11.14 89.39) rotate(-45)"/>
          <rect class="cls-1" x="112.21" y="26.18" width="2.53" height="10.14" transform="translate(11.14 89.39) rotate(-45)"/>
        </g>
        <g>
          <rect class="cls-1" x="108.41" y="3.21" width="10.13" height="2.53" transform="translate(30.07 81.55) rotate(-45)"/>
          <rect class="cls-1" x="112.21" y="-.59" width="2.53" height="10.13" transform="translate(30.07 81.55) rotate(-45)"/>
        </g>
        <g>
          <rect class="cls-1" x="135.18" y="137.05" width="10.13" height="2.53" transform="translate(-56.73 139.68) rotate(-45)"/>
          <rect class="cls-1" x="138.98" y="133.25" width="2.53" height="10.13" transform="translate(-56.73 139.71) rotate(-45.01)"/>
        </g>
        <g>
          <rect class="cls-1" x="135.18" y="110.29" width="10.13" height="2.53" transform="translate(-37.8 131.84) rotate(-45)"/>
          <rect class="cls-1" x="138.98" y="106.48" width="2.53" height="10.13" transform="translate(-37.8 131.86) rotate(-45.01)"/>
        </g>
        <g>
          <rect class="cls-1" x="135.18" y="83.52" width="10.13" height="2.53" transform="translate(-18.87 124.01) rotate(-45)"/>
          <rect class="cls-1" x="138.98" y="79.71" width="2.53" height="10.13" transform="translate(-18.87 124) rotate(-45)"/>
        </g>
        <g>
          <rect class="cls-1" x="135.18" y="56.75" width="10.13" height="2.53" transform="translate(.06 116.16) rotate(-45)"/>
          <rect class="cls-1" x="138.98" y="52.95" width="2.53" height="10.13" transform="translate(.05 116.16) rotate(-45)"/>
        </g>
        <g>
          <rect class="cls-1" x="135.18" y="29.98" width="10.13" height="2.53" transform="translate(18.98 108.32) rotate(-45)"/>
          <rect class="cls-1" x="138.98" y="26.18" width="2.53" height="10.13" transform="translate(18.98 108.32) rotate(-45)"/>
        </g>
        <g>
          <rect class="cls-1" x="135.18" y="3.21" width="10.13" height="2.53" transform="translate(37.91 100.48) rotate(-45)"/>
          <rect class="cls-1" x="138.98" y="-.59" width="2.53" height="10.13" transform="translate(37.91 100.48) rotate(-45)"/>
        </g>
        <g>
          <rect class="cls-1" x="161.95" y="137.05" width="10.13" height="2.53" transform="translate(-48.89 158.6) rotate(-45)"/>
          <rect class="cls-1" x="165.75" y="133.25" width="2.53" height="10.13" transform="translate(-48.89 158.64) rotate(-45.01)"/>
        </g>
        <g>
          <rect class="cls-1" x="161.95" y="110.29" width="10.13" height="2.53" transform="translate(-29.96 150.75) rotate(-45)"/>
          <rect class="cls-1" x="165.75" y="106.48" width="2.53" height="10.13" transform="translate(-29.96 150.79) rotate(-45.01)"/>
        </g>
        <g>
          <rect class="cls-1" x="161.95" y="83.52" width="10.14" height="2.53" transform="translate(-11.03 142.93) rotate(-45)"/>
          <rect class="cls-1" x="165.75" y="79.71" width="2.53" height="10.14" transform="translate(-11.03 142.93) rotate(-45)"/>
        </g>
        <g>
          <rect class="cls-1" x="161.95" y="56.75" width="10.14" height="2.53" transform="translate(7.89 135.08) rotate(-45)"/>
          <rect class="cls-1" x="165.75" y="52.95" width="2.53" height="10.14" transform="translate(7.89 135.09) rotate(-45)"/>
        </g>
        <g>
          <rect class="cls-1" x="161.95" y="29.98" width="10.14" height="2.53" transform="translate(26.82 127.24) rotate(-45)"/>
          <rect class="cls-1" x="165.75" y="26.18" width="2.53" height="10.14" transform="translate(26.82 127.25) rotate(-45)"/>
        </g>
        <g>
          <rect class="cls-1" x="161.95" y="3.21" width="10.13" height="2.53" transform="translate(45.75 119.4) rotate(-45)"/>
          <rect class="cls-1" x="165.75" y="-.59" width="2.53" height="10.13" transform="translate(45.75 119.41) rotate(-45)"/>
        </g>
        <g>
          <rect class="cls-1" x="188.71" y="137.05" width="10.13" height="2.53" transform="translate(-41.05 177.54) rotate(-45)"/>
          <rect class="cls-1" x="192.52" y="133.25" width="2.53" height="10.13" transform="translate(-41.04 177.57) rotate(-45.01)"/>
        </g>
        <g>
          <rect class="cls-1" x="188.71" y="110.29" width="10.13" height="2.53" transform="translate(-22.12 169.69) rotate(-45)"/>
          <rect class="cls-1" x="192.52" y="106.48" width="2.53" height="10.13" transform="translate(-22.11 169.73) rotate(-45.01)"/>
        </g>
        <g>
          <rect class="cls-1" x="188.71" y="83.52" width="10.14" height="2.53" transform="translate(-3.19 161.87) rotate(-45)"/>
          <rect class="cls-1" x="192.52" y="79.71" width="2.53" height="10.14" transform="translate(-3.19 161.86) rotate(-45)"/>
        </g>
        <g>
          <rect class="cls-1" x="188.71" y="56.75" width="10.14" height="2.53" transform="translate(15.74 154.02) rotate(-45)"/>
          <rect class="cls-1" x="192.52" y="52.95" width="2.53" height="10.14" transform="translate(15.74 154.02) rotate(-45)"/>
        </g>
        <g>
          <rect class="cls-1" x="188.71" y="29.98" width="10.14" height="2.53" transform="translate(34.66 146.17) rotate(-45)"/>
          <rect class="cls-1" x="192.52" y="26.18" width="2.53" height="10.14" transform="translate(34.66 146.18) rotate(-45)"/>
        </g>
        <g>
          <rect class="cls-1" x="188.71" y="3.21" width="10.13" height="2.53" transform="translate(53.59 138.34) rotate(-45)"/>
          <rect class="cls-1" x="192.52" y="-.59" width="2.53" height="10.13" transform="translate(53.59 138.34) rotate(-45)"/>
        </g>
      </g>
      <g>
        <g>
          <rect class="cls-1" x="-.59" y="137.05" width="10.13" height="2.53" transform="translate(-96.5 43.68) rotate(-45)"/>
          <rect class="cls-1" x="3.21" y="133.25" width="2.53" height="10.13" transform="translate(-96.51 43.69) rotate(-45.01)"/>
        </g>
        <g>
          <rect class="cls-1" x="-.59" y="110.29" width="10.13" height="2.53" transform="translate(-77.57 35.84) rotate(-45)"/>
          <rect class="cls-1" x="3.21" y="106.48" width="2.53" height="10.13" transform="translate(-77.58 35.85) rotate(-45.01)"/>
        </g>
        <g>
          <rect class="cls-1" x="-.59" y="83.52" width="10.13" height="2.53" transform="translate(-58.64 28) rotate(-45)"/>
          <rect class="cls-1" x="3.21" y="79.71" width="2.53" height="10.13" transform="translate(-58.64 28) rotate(-45)"/>
        </g>
        <g>
          <rect class="cls-1" x="-.59" y="56.75" width="10.14" height="2.53" transform="translate(-39.71 20.16) rotate(-45)"/>
          <rect class="cls-1" x="3.21" y="52.95" width="2.53" height="10.14" transform="translate(-39.71 20.16) rotate(-45)"/>
        </g>
        <g>
          <rect class="cls-1" x="-.59" y="29.98" width="10.14" height="2.53" transform="translate(-20.78 12.32) rotate(-45)"/>
          <rect class="cls-1" x="3.21" y="26.18" width="2.53" height="10.14" transform="translate(-20.78 12.32) rotate(-45)"/>
        </g>
        <g>
          <rect class="cls-1" x="-.59" y="3.21" width="10.13" height="2.53" transform="translate(-1.85 4.48) rotate(-45)"/>
          <rect class="cls-1" x="3.21" y="-.59" width="2.53" height="10.13" transform="translate(-1.85 4.48) rotate(-45)"/>
        </g>
        <g>
          <rect class="cls-1" x="26.18" y="137.05" width="10.13" height="2.53" transform="translate(-88.65 62.61) rotate(-45)"/>
          <rect class="cls-1" x="29.98" y="133.25" width="2.53" height="10.13" transform="translate(-88.66 62.62) rotate(-45.01)"/>
        </g>
        <g>
          <rect class="cls-1" x="26.18" y="110.29" width="10.13" height="2.53" transform="translate(-69.72 54.76) rotate(-45)"/>
          <rect class="cls-1" x="29.98" y="106.48" width="2.53" height="10.13" transform="translate(-69.73 54.78) rotate(-45.01)"/>
        </g>
        <g>
          <rect class="cls-1" x="26.18" y="83.52" width="10.13" height="2.53" transform="translate(-50.8 46.93) rotate(-45)"/>
          <rect class="cls-1" x="29.98" y="79.71" width="2.53" height="10.13" transform="translate(-50.8 46.93) rotate(-45)"/>
        </g>
        <g>
          <rect class="cls-1" x="26.18" y="56.75" width="10.13" height="2.53" transform="translate(-31.87 39.09) rotate(-45)"/>
          <rect class="cls-1" x="29.98" y="52.95" width="2.53" height="10.13" transform="translate(-31.87 39.08) rotate(-45)"/>
        </g>
        <g>
          <rect class="cls-1" x="26.18" y="29.98" width="10.13" height="2.53" transform="translate(-12.94 31.24) rotate(-45)"/>
          <rect class="cls-1" x="29.98" y="26.18" width="2.53" height="10.13" transform="translate(-12.94 31.24) rotate(-45)"/>
        </g>
        <g>
          <rect class="cls-1" x="26.18" y="3.21" width="10.13" height="2.53" transform="translate(5.99 23.41) rotate(-45)"/>
          <rect class="cls-1" x="29.98" y="-.59" width="2.53" height="10.13" transform="translate(5.99 23.41) rotate(-45)"/>
        </g>
        <g>
          <rect class="cls-1" x="52.95" y="137.05" width="10.13" height="2.53" transform="translate(-80.81 81.53) rotate(-45)"/>
          <rect class="cls-1" x="56.75" y="133.25" width="2.53" height="10.13" transform="translate(-80.82 81.55) rotate(-45.01)"/>
        </g>
        <g>
          <rect class="cls-1" x="52.95" y="110.29" width="10.13" height="2.53" transform="translate(-61.88 73.68) rotate(-45)"/>
          <rect class="cls-1" x="56.75" y="106.48" width="2.53" height="10.13" transform="translate(-61.89 73.71) rotate(-45.01)"/>
        </g>
        <g>
          <rect class="cls-1" x="52.95" y="83.52" width="10.14" height="2.53" transform="translate(-42.96 65.85) rotate(-45)"/>
          <rect class="cls-1" x="56.75" y="79.71" width="2.53" height="10.14" transform="translate(-42.96 65.85) rotate(-45)"/>
        </g>
        <g>
          <rect class="cls-1" x="52.95" y="56.75" width="10.14" height="2.53" transform="translate(-24.03 58.01) rotate(-45)"/>
          <rect class="cls-1" x="56.75" y="52.95" width="2.53" height="10.14" transform="translate(-24.03 58.01) rotate(-45)"/>
        </g>
        <g>
          <rect class="cls-1" x="52.95" y="29.98" width="10.14" height="2.53" transform="translate(-5.1 50.17) rotate(-45)"/>
          <rect class="cls-1" x="56.75" y="26.18" width="2.53" height="10.14" transform="translate(-5.1 50.17) rotate(-45)"/>
        </g>
        <g>
          <rect class="cls-1" x="52.95" y="3.21" width="10.13" height="2.53" transform="translate(13.82 42.33) rotate(-45)"/>
          <rect class="cls-1" x="56.75" y="-.59" width="2.53" height="10.13" transform="translate(13.83 42.33) rotate(-45)"/>
        </g>
        <g>
          <rect class="cls-1" x="79.71" y="137.05" width="10.13" height="2.53" transform="translate(-72.97 100.46) rotate(-45)"/>
          <rect class="cls-1" x="83.52" y="133.25" width="2.53" height="10.13" transform="translate(-72.98 100.48) rotate(-45.01)"/>
        </g>
        <g>
          <rect class="cls-1" x="79.71" y="110.29" width="10.13" height="2.53" transform="translate(-54.05 92.62) rotate(-45)"/>
          <rect class="cls-1" x="83.52" y="106.48" width="2.53" height="10.13" transform="translate(-54.05 92.64) rotate(-45.01)"/>
        </g>
        <g>
          <rect class="cls-1" x="79.71" y="83.52" width="10.14" height="2.53" transform="translate(-35.12 84.79) rotate(-45)"/>
          <rect class="cls-1" x="83.52" y="79.71" width="2.53" height="10.14" transform="translate(-35.12 84.78) rotate(-45)"/>
        </g>
        <g>
          <rect class="cls-1" x="79.71" y="56.75" width="10.14" height="2.53" transform="translate(-16.19 76.94) rotate(-45)"/>
          <rect class="cls-1" x="83.52" y="52.95" width="2.53" height="10.14" transform="translate(-16.19 76.94) rotate(-45)"/>
        </g>
        <g>
          <rect class="cls-1" x="79.71" y="29.98" width="10.14" height="2.53" transform="translate(2.74 69.1) rotate(-45)"/>
          <rect class="cls-1" x="83.52" y="26.18" width="2.53" height="10.14" transform="translate(2.74 69.1) rotate(-45)"/>
        </g>
        <g>
          <rect class="cls-1" x="79.71" y="3.21" width="10.13" height="2.53" transform="translate(21.67 61.26) rotate(-45)"/>
          <rect class="cls-1" x="83.52" y="-.59" width="2.53" height="10.13" transform="translate(21.67 61.26) rotate(-45)"/>
        </g>
      </g>
    </g>
  </g>
</svg>