<?xml version="1.0" encoding="UTF-8"?>
<svg id="Layer_2" xmlns="http://www.w3.org/2000/svg" viewBox="0 0 290.17 70">
  <defs>
    <style>
      .cls-1 {
        fill: #fff;
      }
    </style>
  </defs>
  <g id="Layer_1-2" data-name="Layer_1">
    <g>
      <path class="cls-1" d="M13.55,44.54c0,8.33,2.9,13.55,11.62,13.55,3.1,0,5.62-.77,8.04-2.32l.97-.58c1.26-.77,1.94-1.45,4.16-1.45,3.68,0,6.39,2.71,6.39,5.81,0,5.62-9.78,10.36-20.04,10.36C7.75,69.9,0,59.83,0,44.54v-19.17C0,10.07,7.75,0,24.69,0c10.26,0,20.04,4.74,20.04,10.36,0,3.1-2.71,5.81-6.39,5.81-2.23,0-2.91-.68-4.16-1.45l-.97-.58c-2.42-1.55-4.94-2.32-8.04-2.32-8.71,0-11.62,5.23-11.62,13.55v19.17Z"/>
      <path class="cls-1" d="M67.48,69.8c-11.71,0-18.01-7.65-18.01-18.98v-25.27c0-3.29,2.42-5.81,6.68-5.81s6.68,2.52,6.68,5.81v25.27c0,4.94,2.03,7.75,6.29,7.75,2.03,0,4.45-.68,7.45-2.03-.1-.68-.19-1.26-.19-1.84v-29.14c0-3.29,2.23-5.81,6.68-5.81s6.68,2.52,6.68,5.81v31.08c0,1.45.58,2.13,1.84,3.39.97.97,1.36,1.94,1.36,3.29,0,3.87-3.29,5.91-6.2,5.91-2.52,0-4.45-1.55-5.91-3.68-4.55,3.2-9,4.26-13.36,4.26Z"/>
      <path class="cls-1" d="M98.76,11.42c0-3.29,2.42-5.91,6.68-5.91s6.68,2.71,6.68,5.91v10.75h7.17c3.58,0,6.39,2.52,6.39,5.81s-2.81,5.71-6.39,5.71h-7.17v14.62c0,7.16.58,9.68,5.23,9.68.87,0,1.45-.1,1.65-.1,6.1,0,7.94,1.65,7.94,5.23,0,5.62-4.45,6.39-9.29,6.39-15.01,0-18.88-7.36-18.88-20.53V11.42Z"/>
      <path class="cls-1" d="M167.11,42.79c-2.03-.87-4.45-1.74-7.07-2.61-9.49-2.9-19.75-6.1-19.75-20.14,0-12.49,8.71-20.04,22.46-20.04,5.71,0,19.46,1.45,19.46,8.71,0,3.19-2.52,6.1-6.78,6.1-1.74,0-3.1-.58-4.74-1.06-1.84-.68-3.97-1.45-7.36-1.45-4.74,0-9.2,1.65-9.2,7.36,0,4.26,2.42,5.71,4.07,6.49,2.52,1.26,4.84,2.03,6.97,2.61,9.49,3,19.85,6.29,19.85,20.04s-10.26,21.2-24.11,21.2c-7.16,0-20.72-2.52-20.72-9.29,0-3.1,2.81-6.1,6.39-6.1,1.45,0,3,.48,4.84,1.16,2.32.77,5.42,1.94,9.58,1.94,6.68,0,10.07-3,10.07-8.33,0-4.36-2.23-5.81-3.97-6.58Z"/>
      <path class="cls-1" d="M197.23,13.55c-4.26,0-7.55-3.1-7.55-6.78s3.29-6.78,7.55-6.78,7.55,3.1,7.55,6.78-3.29,6.78-7.55,6.78ZM203.91,63.8c0,3.39-2.91,6-6.68,6s-6.68-2.61-6.68-6V25.66c0-3.2,2.9-5.91,6.68-5.91s6.68,2.71,6.68,5.91v38.15Z"/>
      <path class="cls-1" d="M246.89,30.21l-20.91,27.5h15.97c3.68,0,6.49,2.52,6.49,5.71s-2.81,5.71-6.49,5.71h-26.82c-3.58,0-6.78-2.71-6.78-6.2,0-1.16.19-2.32,1.16-3.58l21.01-27.69h-14.81c-3.58,0-6.39-2.52-6.39-5.71s2.81-5.71,6.39-5.71h25.66c3.68,0,6.87,2.23,6.87,6,0,1.26-.39,2.71-1.36,3.97Z"/>
      <path class="cls-1" d="M263.94,50.05v3.19c0,3.29,2.52,5.42,7.75,5.42,3.1,0,5.62-.77,8.71-2.13.39-.19,1.26-.58,2.9-.58,4.65,0,6,3.1,6,5.33,0,6.78-12.39,8.52-18.59,8.52-12.78,0-20.14-7.36-20.14-16.94v-16.17c0-9.78,7.17-17.23,20.62-17.23,12.68,0,18.98,6.68,18.98,16.46s-5.71,14.72-18.78,14.72c-2.52,0-4.65-.19-7.46-.58ZM271.1,29.82c-4.65,0-7.16,2.42-7.16,6.29v4.16c3.1.29,6,.39,6.97.39,3.68,0,6-1.26,6-5.42,0-3.87-2.03-5.42-5.81-5.42Z"/>
    </g>
  </g>
</svg>