<?xml version="1.0" encoding="UTF-8"?>
<svg id="Layer_2" data-name="Layer 2" xmlns="http://www.w3.org/2000/svg" viewBox="0 0 25.51 28">
  <defs>
    <style>
      .cls-1 {
        fill: #fff;
      }

      .cls-2 {
        fill: #272262;
      }

      .cls-3 {
        fill: #844200;
      }

      .cls-4 {
        fill: #ee9c2f;
      }
    </style>
  </defs>
  <g id="Layer_1-2" data-name="Layer 1">
    <g>
      <path d="m19.66,27.13V8.27c0-3.77-2.9-6.83-6.48-6.83H.83c-.46,0-.83.39-.83.87v24.81c0,.48.37.87.83.87h18c.46,0,.83-.39.83-.87Z"/>
      <polygon class="cls-3" points="15.31 1.38 15.31 5.85 19.78 5.85 15.31 1.38"/>
      <g>
        <path class="cls-4" d="m24.91,10.98h-4.82v-4.57h-5.32c-.19,0-.35-.16-.35-.36V.63H2.13v25.43h17.97v-4.64h4.82v-10.44Z"/>
        <rect class="cls-1" x="2.23" y="11.28" width="9.57" height="14.64" transform="translate(14.04 37.19) rotate(-180)"/>
        <path class="cls-2" d="m25.51,20.4v-9.1c0-.12,0-.25,0-.37,0-.15-.11-.26-.23-.33-.07-.01-.14-.02-.21-.03h-3.88v-4.32c0-.06,0-.11-.02-.16,0,0,0,0,0,0,0-.02,0-.03-.02-.05,0,0,0,0,0,0,0-.01-.01-.03-.02-.04,0,0,0,0,0,0,0-.01-.02-.03-.03-.04,0,0,0,0,0,0-.02-.04-.05-.07-.08-.09L15.37.2s-.02-.02-.03-.03c0,0,0,0,0,0,0,0,0,0-.01-.01,0,0,0,0,0,0-.14-.12-.32-.16-.49-.13H1.96C1.63,0,1.36.27,1.36.6v25.63c0,.33.26.59.59.59h18.64c.33,0,.59-.26.59-.59v-4.55h3.9c.06,0,.13,0,.19-.03.11-.07.23-.17.23-.31,0-.31,0-.62,0-.94ZM15.53,2.03l3.64,3.64h-3.64v-3.64Zm-7.45,23.53H2.62v-9.71h5.46v9.71Zm3.3,0h-2.51v-10.42H2.58v-3.42h8.8v13.84Zm8.63,0h-1.42c0-.47,0-.93,0-1.4-.04-.11-.14-.19-.24-.2-.13-.01-.26.08-.3.22,0,.46-.01.92-.02,1.37h-1.42c0-.46,0-.92-.01-1.38-.02-.16-.16-.27-.32-.26-.16.01-.29.15-.27.32v1.32h-1.33c0-.46,0-.91,0-1.37,0,0-.08-.19-.27-.22-.15-.02-.31.06-.38.21,0,.46,0,.92-.01,1.38h-1.85v-14.52H2.55V1.19h.01v-.08h11.8v5.07c0,.33.26.59.59.59h5.07v3.81h-1.06s-.09.01-.14.01c-.04,0-.08-.02-.12-.01h-4.65c-.09,0-.17.01-.25.03-.1.03-.18.1-.22.2-.06.11-.05.23-.05.35v9.95c0,.09,0,.19.01.28.03.1.09.21.19.25.07.05.16.05.25.05h6.03v3.88Zm-3.23-11.54c1,0,2.01,0,3.01,0,.07,0,.14,0,.2,0,0,0,0,0,.01,0v1.74h-.01c-1.07,0-2.14,0-3.22,0-.04,0-.07-.03-.07-.08,0-.53,0-1.06,0-1.59,0-.05.03-.09.07-.08Zm-.07-.93c0-.53,0-1.06,0-1.59,0-.05.03-.09.07-.08,1,0,2.01,0,3.01,0,.07,0,.14,0,.2,0,0,0,0,0,.01,0v1.74h-.01c-1.07,0-2.14,0-3.22,0-.04,0-.07-.03-.07-.08Zm3.3,3.48v1.68h-.01c-1.09,0-2.18,0-3.26,0,0-.56,0-1.12,0-1.68,1.09,0,2.18,0,3.26,0h.01Zm-3.27,2.56c1.09,0,2.18,0,3.26,0h0s0,0,0,0v1.68c-1.03,0-2.3,0-3.28,0,0-.56,0-1.12,0-1.68Zm-.81-5.96c-.53,0-1.05,0-1.58,0,0-.01,0-.04,0-.05,0-.56,0-1.11,0-1.67.03-.01.06-.03.09-.03.46,0,.91,0,1.37,0,.05,0,.09,0,.14,0,0,.41,0,.83,0,1.24,0,.16,0,.33,0,.49Zm-.09,5.09c-.47,0-.94,0-1.41,0-.03,0-.06,0-.09-.03,0-.54,0-1.07,0-1.61,0-.01,0-.04,0-.05.44,0,.88,0,1.33,0,.08,0,.16,0,.24,0,.01.08,0,.16,0,.25,0,.46,0,.92,0,1.37,0,.06-.05.07-.09.07Zm.08.87v1.68c-.52,0-1.05,0-1.57,0,0-.56,0-1.12,0-1.68.52,0,1.05,0,1.57,0Zm0-3.39c-.5,0-1,0-1.5,0-.04,0-.09-.02-.1-.06,0-.06,0-.13,0-.19,0-.49,0-.98,0-1.48,0,0,.03,0,.04,0v-.02c.53.01,1.05,0,1.58,0,0,.56,0,1.13,0,1.69,0,.02-.01.04-.02.05Zm8.78,5.07c-1.13,0-2.27,0-3.4,0-.03,0-.08,0-.07-.05,0-.53,0-1.06,0-1.6,0,0,.02-.02.03-.03,1.15,0,2.3,0,3.45,0,0,.56,0,1.12,0,1.68Zm0-2.57s-.05.03-.08.03c-.69,0-1.37,0-2.06,0-.45,0-.91,0-1.36,0,0-.56,0-1.12,0-1.68.02-.01.05-.04.07-.03,1.14,0,2.29,0,3.43,0,0,0-.01.02-.01.03.02.55,0,1.11.01,1.66Zm.02-2.53c-.09.01-.18.01-.27,0h-2.93c-.1,0-.21,0-.31-.02,0-.56,0-1.13,0-1.69.09-.03.18-.02.27-.02,1.04,0,2.09,0,3.13,0,.04,0,.07,0,.11,0,0,.57,0,1.14,0,1.71Zm0-3.01c0,.16,0,.31,0,.47-.98,0-1.96,0-2.94,0-.19,0-.38,0-.56,0,0-.56,0-1.11,0-1.66,0-.05.03-.09.07-.08,1.15,0,2.29,0,3.44,0,.01.42,0,.85,0,1.27Z"/>
      </g>
    </g>
  </g>
</svg>