<?xml version="1.0" encoding="UTF-8"?>
<svg id="Layer_2" data-name="Layer 2" xmlns="http://www.w3.org/2000/svg" xmlns:xlink="http://www.w3.org/1999/xlink" viewBox="0 0 1440 1080">
  <defs>
    <style>
      .cls-1 {
        fill: #dce3e8;
      }

      .cls-2, .cls-3 {
        fill: #272262;
      }

      .cls-4 {
        fill: #fdfdfd;
      }

      .cls-5 {
        fill: none;
      }

      .cls-3 {
        fill-rule: evenodd;
      }

      .cls-6 {
        fill: url(#New_Pattern);
        opacity: .04;
      }
    </style>
    <pattern id="New_Pattern" data-name="New Pattern" x="0" y="0" width="374" height="616.95" patternTransform="translate(-492 -139)" patternUnits="userSpaceOnUse" viewBox="0 0 374 616.95">
      <g>
        <rect class="cls-5" width="374" height="616.95"/>
        <g>
          <path class="cls-3" d="m-22.46,16.85C-2.87,16.85,13.08.91,13.08-18.69S-2.87-54.23-22.46-54.23s-35.54,15.94-35.54,35.54S-42.06,16.85-22.46,16.85h0Zm-.35-34.08h-22.46c-.93,0-1.68-.75-1.68-1.68s.74-1.69,1.68-1.69h20.78v-22.92c0-.93.74-1.69,1.68-1.69s1.68.75,1.68,1.69v24.6c0,.94-.75,1.68-1.68,1.68h0Z"/>
          <g>
            <path class="cls-2" d="m142.73,71.3c.02.53-.09,1.06-.46,1.46-.64.69-2.02,1-2.92,1.04-.39.01-.72-.06-1.05-.27-.47-.29-.78-.76-.9-1.3-.13-.59-.06-1.24.28-1.75.57-.86,1.92-1.27,2.88-1.46.56.02.97.13,1.39.52.49.45.74,1.11.77,1.77Zm-2.03.32c-.08-.48-.35-.92-.74-1.2-.36-.25-.71-.25-1.13-.19-.39.14-.66.29-.84.68-.21.46-.19.99,0,1.46.14.36.38.67.74.83.2.09.6.17.81.1.39-.06.7-.19.94-.52.25-.33.31-.76.24-1.16Zm1.47-.76c-.15-.49-.48-.97-.95-1.2-.33-.16-.64-.12-.99-.07l-.38.15c.66.42,1.28.9,1.45,1.71.1.46-.21,1.45-.19,1.49l.19-.11c.35-.1.6-.26.78-.59.24-.42.22-.93.08-1.38Z"/>
            <path class="cls-2" d="m149.38,75.05l-.19.08c-.7-.18-1.52-.22-2.24-.28.33-.78-.03-3.51.39-3.91.66,0,1.49.13,2.14.27.17.38.04,3.35-.1,3.83Zm-.47-1.55c-.01-.07-.03-.11-.06-.17-.39-.08-.87-.17-1.27-.14.02.38.06.86-.12,1.2.42.06.88.16,1.31.15.19-.27.21-.71.14-1.03Z"/>
            <path class="cls-2" d="m135.96,79.56c.08-.01.15-.02.23-.02.69-.01,1.43.16,2.11.27l3.52.53,3.92.57c.53.08,1.09.1,1.61.21.16.03.22.05.33.17-.02.17-.05.19-.16.32l-.1.04c-1.19-.13-11.18-1.6-11.45-1.83l-.02-.26Z"/>
            <path class="cls-2" d="m135.88,82.32c.25-.02,10.9,1.61,11.55,1.8.07.02.11.05.16.09.02.16-.01.16-.1.29-.27.12-10.48-1.53-11.48-1.77-.13-.13-.11-.24-.12-.41Z"/>
            <path class="cls-2" d="m135.96,85.38c.08-.01.15-.02.23-.02.69-.01,1.43.16,2.11.27l3.52.53,3.92.57c.53.08,1.09.1,1.61.21.16.03.22.05.33.17-.02.17-.05.19-.16.32l-.1.04c-1.19-.13-11.18-1.6-11.45-1.83l-.02-.26Z"/>
            <path class="cls-2" d="m135.88,88.14c.25-.02,10.9,1.61,11.55,1.8.07.02.11.05.16.09.02.16-.01.16-.1.29-.27.12-10.48-1.53-11.48-1.77-.13-.13-.11-.24-.12-.41Z"/>
            <path class="cls-2" d="m158.08,66.61c-.02,2.39-.19,4.8-.29,7.18l-.5,11.49-.22,4.48c-.02.56.02,1.27-.12,1.82,0,.03-.02.07-.03.1.02.07.05.08,0,.15-.15.24-4.34,3.22-4.74,3.4-15.87-3.04-31.71-6.17-47.53-9.39-.02,2.04-.14,4.13-.01,6.16-.06,3.63-.06,7.26-.07,10.88,0,1.78.08,3.6-.02,5.37-.03.47-.02.95-.02,1.42-.52.3-1.04.62-1.55.94-4.13-1.04-8.23-2.29-12.34-3.43-1.69-.48-3.4-.98-5.11-1.36-.01-.36-.03-.73-.05-1.09l-.34-21.73c.02-.76.06-1.86-.14-2.58-2.41-.29-4.85-.83-7.25-1.28-2.06-.38-4.14-.71-6.19-1.15.03,1.14-.02,2.33.13,3.46-.01,2.27.09,4.54.15,6.81l.26,10.57v1.29c-.5.21-.99.43-1.48.66-2.5-.63-4.99-1.36-7.5-2.05-1.9-.51-3.83-.97-5.7-1.57-.01-.51,0-1.02-.08-1.52.02-.62-.03-1.26-.07-1.87-.06-1.21-.12-2.42-.16-3.63-.15-4.62-.35-9.23-.58-13.84l-.03-1.19c-1.35-.33-2.72-.54-4.09-.8l-9.3-1.8c.05.52.02,1.05.1,1.56l.88,16.83.02.69c-.48.16-.97.35-1.46.52-1.58-.5-3.21-.87-4.83-1.29-1.13-.3-2.25-.65-3.39-.93-.28-.07-.79-.13-.98-.36-.26-.29-.99-16.37-1.19-18.09-.73.09-1.13-.03-1.79-.3-.08-1.72-.2-3.45-.21-5.16,1.39-.41,2.83-.66,4.24-.94,1.48-.3,2.96-.65,4.45-.86-.05-1.73-.15-3.47-.16-5.2,1.64-.37,3.34-.59,4.99-.87,1.39-.23,2.78-.55,4.18-.7.72-.08,1.42.09,2.14.12.58.02,1.14-.1,1.71-.24,0-.79.05-1.61-.01-2.39-.78-.22-3.04-1.15-3.74-1.56.15-2.6.62-5.2.84-7.81,1.68-.08,3.39.01,5.06.06,1.16.02,2.36-.01,3.52.09-.28,2.88-.65,5.75-.86,8.64l-.51.2c0,.72.02,1.46.07,2.18,1.06-.01,2.62-.05,3.41-.86.15-.15.22-.3.24-.51-.08-.14-.12-.2-.28-.23-.33-.07-.72-.01-1.06-.03,0-1.46.01-2.91.03-4.37.06-3.56.36-6.82,3.02-9.46.08-.07.16-.15.24-.22.08-.08.17-.15.26-.22.09-.07.17-.14.27-.21.09-.06.19-.13.28-.19.09-.06.19-.12.28-.17.1-.06.2-.12.3-.16.09-.06.2-.1.3-.15.09-.05.2-.09.3-.14.1-.03.21-.07.31-.12.1-.03.21-.07.33-.09.1-.03.21-.07.33-.09.1-.02.21-.05.33-.07.1-.02.22-.03.33-.05.12-.02.22-.03.34-.05.12,0,.22-.01.34-.01.1-.01.22-.01.34-.01,1.8.02,3.42.77,4.67,2.06,1.87,1.91,2.68,4.28,2.91,6.9l5.52.38c.01-.27.01-.55.05-.81,1.13-.38,2.46-.48,3.63-.65l6.34-.91c1.13-.17,2.26-.35,3.39-.54.8-.13,1.61-.3,2.42-.33,1-.02,2.03.07,3.01.13,2.1.12,4.18.28,6.26.38l22.92,1.28,16.55.9c1.76.08,3.5.17,5.26.27.72.05,1.54.02,2.24.16.07.13.08.22.09.36.05,2.22-.14,4.49-.21,6.72-.02.78.01,2.93-.16,3.56-.01.06-.05.12-.08.17-1.06.41-2.81,1.15-3.86,1.37,0,.01.01.02.01.03.21.47-.13,2.6.08,2.78.74-.02,1.68-.05,2.41.17.17.33.15,1.11.05,1.46-.01.05-.03.08-.05.13,1.22.2,7.6.77,8.13,1.04.07.13.09.22.09.36Zm-9.2-7.05c.24-.06.48-.09.69-.23.35-.08.91-.23,1.2-.44.06-.14.09-.27.1-.42.07-.91.43-9.07.29-9.45-.03-.07-.02-.05-.05-.1l-.83.06c-.34.03-.68.07-1.01.09.06.12.08.21.08.34.02.76-.03,1.52-.07,2.27l-.16,4.3c-.02.74.01,2.84-.15,3.4-.02.07-.06.13-.09.2Zm-52.91-9.87c1.5.19,3.04.26,4.55.36,2.72.2,5.45.37,8.17.54l16.79,1.12,6.72.45c1,.07,2.19.03,3.15.27.93.23,1.84.86,2.41,1.61,1.25,1.59,1.04,3.49.91,5.35-.03.56-.02,1.12-.09,1.66-.01.1-.05.2-.08.29,1.01.09,3.45.44,4.35.28.85-.15,1.72-.54,2.55-.8.54-.19,1.32-.35,1.79-.64.38-.09.92-.21,1.22-.45.05-.09.08-.19.08-.29.08-1,.43-10.33.36-10.51-.01-.05-.02-.06-.05-.1-8.2-.56-16.41-.87-24.62-1.37l-18.18-1.05c-3.34-.19-6.69-.47-10.03-.56v3.85Zm42.26,14.35l.83.08c.17-.13.19-.16.22-.38.06-.48.12-1.36-.05-1.82-.28-.03-.5-.05-.78-.01.09.48.03,1.71-.22,2.13Zm-58.17-15.62c.17.21.34.26.61.29.58.07,1.29.06,1.86-.1,2.86-.43,5.77-.98,8.66-1.23v2c1.43.07,2.86.23,4.31.28,0-.58.1-3.6-.14-3.85h-.14c-2.86.38-5.72.87-8.57,1.29-2.06.3-4.16.5-6.19.88-.12.02-.21.07-.3.13-.09.14-.09.15-.09.31Zm10.56-.52l-.03-.04c-1.3.23-2.61.44-3.91.64-.71.1-1.49.15-2.19.33v.09h-.03v-.02s-.05.01-.05.01h.05s.01.08.01.08v-.07s.38.06.38.06c1.92.1,3.88.31,5.8.35.01-.43.08-1.01-.02-1.43Zm-17.58,8.93c-2.22-.2-4.47-.33-6.68-.59l-.03,1.35c3.28.47,6.61.78,9.92,1.14l10.84,1.22,28.15,3.27c1.59.17,12.83,1.35,13.25,1.57.19.33.06,1.4-.02,1.77-.01.07-.05.12-.08.17l3.38.42c.49.06,1.02.07,1.5.19.19-.36.17-1.2.09-1.61.48-.2.93-.43,1.43-.62.98-.35,2.04-.62,2.99-1.05.23-.31.5-5.32.54-6.1.06-1.42-.19-2.86-1.2-3.95-1.13-1.22-2.48-1.27-4.03-1.32-.49.01-1.01-.1-1.43.2-.48.13-.71.43-1.13.63,0,.02-.01.06-.02.08-.08.26-.27.5-.4.74-.27.51-.41,1.01-.54,1.57-.33,1.4-.51,2.85-.71,4.27-.07.57-.09,1.16-.22,1.73-.03.14-.07.21-.16.33l.02.17c-.21.15-.65.06-.9.02-5.24-.61-10.5-1.09-15.75-1.65l-29.87-3.12-8.93-.86Zm40.78,7.39c4.69.56,9.38,1.2,14.09,1.68l.07-.03c.09-.15.16-.36.12-.54-.02-.08-.05-.09-.12-.13-.48-.22-2.83-.34-3.56-.43l-16.48-1.92-28.04-3.27-8.08-.9c-1.83-.22-3.68-.49-5.52-.62.01.23-.01.35.12.54.29.13,4.12.48,4.84.56,4.27.52,8.54,1.01,12.83,1.48l29.74,3.59Zm-46.7-15.3c.14-.22.37-.36.47-.61l-.16-.09c-1.18,0-1.85-.22-2.75.69-1.63,1.63-1.42,4.59-1.5,6.72-.05,1.22-.12,2.44-.22,3.66.97-.14,1.94-.31,2.9-.52.02-1,.06-1.99.12-2.99.01-2.1-.07-5.05,1.15-6.84Zm6.39-.8c-.05-.3-.08-.62-.14-.92-.21,0-.44,0-.66.02-.42.08-.78.12-1.07.47l-.02.13c.12.15.21.22.41.24.15.01.3.01.44.02l1.05.03Zm-.8-3.28c-.54.2-1.01.47-1.51.74.08.33.33,1.54.54,1.68h.03c.54-.13,1.06-.27,1.61-.27-.1-.45-.3-1.85-.66-2.15Zm-1.09-2c-.07.02-.13.05-.2.06-.06.02-.13.06-.19.08-.06.02-.12.06-.19.09-.06.02-.12.06-.17.09-.06.05-.1.08-.16.12-.06.05-.1.08-.16.13-.05.03-.1.08-.15.13-.05.05-.09.09-.14.15.16.33.65,1.51.91,1.69l.1-.02c.47-.26.93-.52,1.43-.72-.22-.48-.62-1.52-1.08-1.79Zm-4.12-3.02c-.21.57-.35,1.16-.5,1.75.65.13,1.18.36,1.75.66.24-.38.5-.77.78-1.13-.15.43-.43.81-.68,1.2.3.27.61.51.87.8l.42.51c.41-.48.87-.72,1.44-.94-1.06-1.5-2.29-2.4-4.09-2.85Zm-2.4,1.8c.52-.08,1.07-.17,1.61-.15h.13c.26-.28.38-1.26.48-1.68-.51-.03-1.11-.1-1.62,0-.24.02-.38.01-.58.16-.24.5-.01,1.13-.01,1.66Zm-2.32-.75c.21.45.41.91.71,1.32l.13.1c.5-.13.94-.47,1.44-.63-.06-.35-.12-1.49-.27-1.7h-.07c-.68.22-1.37.47-1.94.91Zm-1.93,1.84c.51.2.88.44,1.26.85l.13.12c.31-.12.94-.98,1.28-1.26-.3-.4-.62-1.2-.9-1.46-.68.52-1.22,1.08-1.77,1.75Zm-1.01,1.97l1.57.58c.36-.34.56-.97.83-1.4-.4-.41-.84-.92-1.4-1.06-.41.61-.73,1.2-1,1.87Zm-.56,2.36c.58.07,1.16.14,1.73.22.09-.62.27-1.22.43-1.83-.56-.21-1.15-.38-1.69-.63-.21.73-.36,1.48-.48,2.24Zm1.64,1.69c.01-.43.02-.86.07-1.29-.57-.08-1.15-.21-1.72-.26-.07.5-.1,1-.14,1.5.59.02,1.2.03,1.79.05Zm-1.7,8.49c1.14.08,2.28.23,3.42.3.02-.84.07-1.66.08-2.5.08-2.2-.05-4.9,1.7-6.54.62-.58,1.35-.84,2.19-.8,1.52.06,3.07.19,4.6.31-.27-1.94-.92-3.99-2.56-5.21-.81-.62-1.77-.81-2.76-.76-1.41.3-2.46.91-3.27,2.13-1.75,2.65-1.19,7.19-1.23,10.27,0,.35.01.55-.37.65-.08.22,0,.42-.05.64-.17.78-1.11,1.2-1.75,1.51Zm-3.41-3.18c.09-.03.24-.06.28-.15.16-.4.16-1.48.21-1.94.2-1.93.36-3.91.64-5.83-2.51-.06-5.02-.1-7.53-.14-.4,2.34-.51,4.75-.81,7.1,2.93,1.19,3.95,1.87,7.22.97Zm-14.89,5.02c1.2.14,2.41.23,3.61.41l4.19.47c.63.08,1.32.22,1.96.21.55,0,1.12-.14,1.65-.23l2.91-.54c2.22-.4,5.04-.73,7.17-1.37-1.14-.14-2.28-.24-3.43-.34-1.3.28-4,.86-5.27.79-1.76-.1-3.59-.65-5.34-.59-.68.02-1.37.16-2.05.27-1.78.29-3.6.72-5.39.93Zm21.49-.42c-.08-.02-.12-.02-.21-.01-2.65.41-5.31.92-7.95,1.4-1.09.2-2.19.47-3.29.61-.01.29-.05.63.02.92.06.03.08.06.15.05,3.75-.7,7.53-1.37,11.26-2.15.03-.26.12-.57.02-.8Zm-23.16.72c.06,1.55.08,3.12.21,4.66,3.07-.59,6.15-1.22,9.21-1.87.58-.1,1.16-.21,1.73-.36v-1.16c-2.55-.33-5.09-.62-7.62-.9-1.16-.13-2.36-.33-3.53-.36Zm8.78,7.79c6.24-1.47,12.48-2.91,18.72-4.31.01-.57.13-3.4-.06-3.7h-.17c-5.58,1.05-11.14,2.14-16.69,3.29-3.68.71-7.36,1.47-11.02,2.25-2.53.52-5.06,1-7.59,1.58.06,1,.1,2,.14,3,.02.57-.01,1.27.13,1.82,1.65-.36,3.28-.78,4.92-1.16,3.89-.88,7.76-1.8,11.63-2.77Zm55.93,13.14c.4-.05,3.4-1.4,4.13-1.7l18.82-7.66c.73-.29,3.24-1.18,3.76-1.57.03-.08.07-.14.08-.23.02-.31.15-1.39-.02-1.61h-.34c-.41-.17-.85,0-1.25.13-1.56.51-3.1,1.16-4.63,1.76l-9.99,3.88c-3.7,1.42-7.39,2.86-11.08,4.33-1.43.57-2.97,1.05-4.34,1.71-.08.03-.15.09-.22.15-.19.06-.41,0-.59-.02-2.35-.37-4.68-.88-7.02-1.28-2.6-.45-46.38-7.69-48.95-8.3.02.93.01.23,0,1.16,2.6.57,46.36,9.52,48.97,10.02,2.5.48,5.01,1.04,7.52,1.42,1.4-.66,2.91-1.09,4.3-1.8m50.1-11.99c-.01-.08-.03-.16-.08-.23l-13.05-1.55c-1.06-.13-5.54-.86-6.31-.7.1.29.21.95.08,1.25-.07.15-.21.24-.37.3-.64.2-1.58-.13-2.25-.19.16.31.14,1.68.01,2.03-.01.03-.03.08-.06.1-.55.35-1.44.71-2.08.87.2.4-.02,4.06-.03,4.71l-.23,10.56c-.01.73.02,3.7-.13,4.13-.01.03-.03.08-.06.12,1.44.22,2.88.57,4.31.85l9.64,1.92,4.23.84c.51.1,1.12.17,1.61.35,1.16.21,2.33.47,3.49.66.05-.07.09-.14.12-.22.16-.61.17-3.76.21-4.61l.72-15.09.2-4.41c.02-.52.12-1.18.05-1.7Zm3.78-2.15c-1.09-.12-6.9-.99-7.5-.74l-.03.09s-.08.03-.12.03c-.4.07-1.64-.05-1.97-.26-.15-.19-.45-.2-.68-.23-1.49-.19-2.99-.31-4.48-.49-.93-.1-3.36-.51-4.14-.38-1.22.2-2.37.88-3.6,1.16,1.92.2,3.82.48,5.74.71l8.07.94c1.33.15,3.96.64,5.16.56.45-.03,3.1-1.02,3.47-1.3t.08-.09Z"/>
            <polygon class="cls-4" points="84.45 48.92 84.4 48.91 84.44 48.89 84.45 48.92"/>
            <polygon class="cls-4" points="84.47 48.92 84.46 48.99 84.45 48.92 84.47 48.92"/>
            <path class="cls-2" d="m56.18,46.72c-.14,1.85-.31,3.7-.51,5.55-2.13-.01-4.26-.14-6.38-.21.17-1.83.41-3.67.5-5.5l.89.02,3.82.08c.51.01,1.19-.05,1.68.07Z"/>
            <path class="cls-4" d="m55.66,57.3s-.03,0-.05.01c0-.01.01-.01.01-.02h.03Z"/>
          </g>
        </g>
        <g>
          <path class="cls-2" d="m263.23,27.84v53.57h-53.57V8.4h34.09l19.49,19.44Zm-43.86-7.3h14.6v-2.42h-14.6v2.42Zm0,9.72h14.6v-2.42h-14.6v2.42Zm34.09,36.55h-34.09v2.42h34.09v-2.42Zm0-9.72h-34.09v2.42h34.09v-2.42Zm0-9.72h-34.09v2.42h34.09v-2.42Zm0-9.77h-34.09v2.42h34.09v-2.42Zm6.36-10.77l-16.08-16.03v16.03h16.08Z"/>
          <g>
            <path class="cls-3" d="m351.54,16.85c19.6,0,35.54-15.94,35.54-35.54s-15.94-35.54-35.54-35.54-35.54,15.94-35.54,35.54,15.94,35.54,35.54,35.54h0Zm-.35-34.08h-22.46c-.93,0-1.68-.75-1.68-1.68s.74-1.69,1.68-1.69h20.78v-22.92c0-.93.74-1.69,1.68-1.69s1.68.75,1.68,1.69v24.6c0,.94-.75,1.68-1.68,1.68h0Z"/>
            <path class="cls-3" d="m312.82,7.18h-27.18c-.74,0-1.33-.67-1.33-1.51s.59-1.51,1.33-1.51h27.18c.74,0,1.33.67,1.33,1.51s-.59,1.51-1.33,1.51Z"/>
          </g>
          <g>
            <path class="cls-2" d="m357.48,111.08v19.58c0,3.6-2.93,6.53-6.53,6.53h-5.8v9.53c0,.67-.54,1.21-1.21,1.21h-35.78c-.67,0-1.21-.54-1.21-1.21v-9.53h-5.8c-3.6,0-6.53-2.93-6.53-6.53v-19.58c0-3.6,2.93-6.53,6.53-6.53h5.8v-18.25c0-.67.54-1.21,1.21-1.21h35.78c.67,0,1.21.54,1.21,1.21v18.25h5.8c3.6,0,6.53,2.93,6.53,6.53Zm-55.63,1.9c0,.67.54,1.21,1.21,1.21h3.87c.67,0,1.21-.54,1.21-1.21s-.54-1.21-1.21-1.21h-3.87c-.67,0-1.21.54-1.21,1.21Zm7.52-8.43h33.36v-17.04h-33.36v17.04Zm33.36,23.05h-33.36v17.9h33.36v-17.9Z"/>
            <path class="cls-2" d="m314.9,134.49h22.3c.67,0,1.21-.54,1.21-1.21s-.54-1.21-1.21-1.21h-22.3c-.67,0-1.21.54-1.21,1.21s.54,1.21,1.21,1.21Z"/>
            <path class="cls-2" d="m314.9,141.05h22.3c.67,0,1.21-.54,1.21-1.21s-.54-1.21-1.21-1.21h-22.3c-.67,0-1.21.54-1.21,1.21s.54,1.21,1.21,1.21Z"/>
          </g>
        </g>
        <g>
          <path class="cls-2" d="m76.23,336.31v53.57H22.66v-73.01h34.09l19.49,19.44Zm-43.86-7.3h14.6v-2.42h-14.6v2.42Zm0,9.72h14.6v-2.42h-14.6v2.42Zm34.09,36.55h-34.09v2.42h34.09v-2.42Zm0-9.72h-34.09v2.42h34.09v-2.42Zm0-9.72h-34.09v2.42h34.09v-2.42Zm0-9.77h-34.09v2.42h34.09v-2.42Zm6.36-10.77l-16.08-16.03v16.03h16.08Z"/>
          <path class="cls-2" d="m357.66,212.88v71.33h-9.49v9.49h-9.49v9.54h-52.34v-71.33h9.49v-9.54h9.54v-9.49h52.29Zm-28.53,76.1h-33.3v2.36h33.3v-2.36Zm0-9.5h-33.3v2.36h33.3v-2.36Zm0-9.54h-33.3v2.36h33.3v-2.36Zm0-9.49h-33.3v2.36h33.3v-2.36Zm0-9.54h-33.3v2.36h33.3v-2.36Zm0-9.49h-33.3v2.36h33.3v-2.36Zm16.68-16.68h-47.62v7.18h40.49v59.43h7.13v-66.61Zm9.49-9.5h-47.57v7.13h40.44v59.48h7.13v-66.61Z"/>
          <g>
            <g>
              <path class="cls-2" d="m218.64,205.84c-.19.7-.33,1.41-.56,2.09-1.3,3.73-3.38,6.95-6.31,9.62-.64.58-1.28.9-2.16.81-.72-.07-1.45-.02-2.17,0-.46.02-.89.42-.95.8-.08.52.14.97.64,1.16.26.1.56.14.84.14,11.32,0,22.64,0,33.96,0,.19,0,.38-.01.56-.06.51-.12.85-.49.87-.91.04-.66-.36-1.13-1.04-1.15-.93-.02-1.86,0-2.79,0-.3,0-.57-.07-.8-.27-.14-.13-.3-.24-.44-.36-1.75-1.5-3.19-3.27-4.38-5.24-1-1.65-1.81-3.39-2.35-5.25-.18-.62-.32-1.26-.46-1.89-.01-.04.07-.15.12-.16.2-.03.41-.05.62-.05,7.65,0,15.3,0,22.95-.01.55,0,1.12-.09,1.65-.27,1.91-.64,3.1-2.4,3.1-4.51,0-13.67,0-27.34,0-41.01,0-.14,0-.29-.02-.43-.1-1.68-.87-2.98-2.32-3.85-.93-.56-1.97-.67-3.03-.67-4.62,0-9.24,0-13.86,0-12.5,0-25,0-37.51,0-2.64,0-5.28,0-7.92.02-.9,0-1.75.27-2.5.78-1.43.97-2.09,2.36-2.09,4.06,0,13.71,0,27.42,0,41.12,0,.31.02.64.08.94.43,2.23,2.25,3.76,4.53,3.81.7.01,1.41,0,2.12,0,6.94,0,13.89,0,20.83,0,.3,0,.6.04.93.06-.07.26-.12.45-.17.64Zm-26.16-13.25c-.01-.31-.04-.61-.04-.9,0-8.78,0-17.56,0-26.34,0-2.11-.01-4.21,0-6.32,0-.88.4-1.59,1.13-2.08.51-.34,1.09-.42,1.69-.42,4.84,0,9.68,0,14.51,0,14.93,0,29.86,0,44.79,0,.8,0,1.55.15,2.14.74.39.4.66.87.68,1.44.02.67,0,1.34,0,2,0,5.38,0,10.76,0,16.14,0,5.18,0,10.36,0,15.54,0,.05,0,.11,0,.2h-64.91Zm64.91,2.42c0,1.78.01,3.56.03,5.34.01,1.07-.37,1.93-1.36,2.39-.42.19-.92.28-1.39.28-6.31.02-12.62.01-18.93.01-13.13,0-26.26,0-39.39,0-.51,0-1.03.01-1.54-.02-1.31-.07-2.33-1.08-2.35-2.38-.03-1.89,0-3.78-.02-5.67,0-.26.16-.24.33-.24,1.68,0,3.36,0,5.04,0,19.6,0,39.2,0,58.8,0,.25,0,.5,0,.76,0,0,.13.02.21.02.29Zm-43.29,23.33c.07-.1.12-.19.18-.26.74-.88,1.54-1.73,2.22-2.66,1.75-2.36,3.04-4.97,3.86-7.8.2-.68.32-1.39.46-2.09.07-.38.06-.39.46-.39,1.51,0,3.02,0,4.53,0,.91,0,1.83,0,2.74,0,.43,0,.42,0,.49.41.3,1.85.91,3.6,1.67,5.3.79,1.78,1.78,3.45,2.97,4.99.54.71,1.17,1.35,1.75,2.03.11.13.21.26.36.46h-21.69Z"/>
              <path class="cls-2" d="m256.61,194.72c-19.6,0-39.2,0-58.8,0-1.68,0-3.36,0-5.04,0-.16,0-.33-.02-.33.24,0,1.89-.02,3.78.02,5.67.02,1.3,1.05,2.31,2.35,2.38.51.03,1.03.02,1.54.02,13.13,0,26.26,0,39.39,0,6.31,0,12.62,0,18.93-.01.47,0,.97-.09,1.39-.28.99-.46,1.38-1.31,1.36-2.39-.02-1.78-.02-3.56-.03-5.34,0-.08,0-.16-.02-.29-.26,0-.51,0-.76,0Zm-33.15,5.08c-.49-.1-.72-.48-.71-.99,0-.47.26-.86.73-.95.39-.08.8-.09,1.21-.08.57,0,1.14.01,1.7.09.48.07.71.4.74.87.03.53-.16.83-.61,1.04-.5.24-1.03.11-1.77.17-.29-.03-.8-.04-1.29-.15Z"/>
              <path class="cls-2" d="m235.79,218.34h-21.69c.07-.1.12-.19.18-.26.74-.88,1.54-1.73,2.22-2.66,1.75-2.36,3.04-4.97,3.86-7.8.2-.68.32-1.39.46-2.09.07-.38.06-.39.46-.39,1.51,0,3.02,0,4.53,0,.91,0,1.83,0,2.74,0,.43,0,.42,0,.49.41.3,1.85.91,3.6,1.67,5.3.79,1.78,1.78,3.45,2.97,4.99.54.71,1.17,1.35,1.75,2.03.11.13.21.26.36.46Z"/>
              <path class="cls-2" d="m225.56,174.2c.45.14.88.27,1.3.41.62.2,1.23.41,1.85.62.96.32,1.91.65,2.87.96.59.2,1.19.37,1.78.57.92.31,1.83.63,2.75.95.71.24,1.42.48,2.12.73.08.03.14.09.21.14-.07.06-.13.14-.21.19-.92.5-1.84,1-2.76,1.5-.14.08-.28.16-.41.26-.46.37-.54,1.03-.12,1.46.89.92,1.8,1.83,2.71,2.74,1.15,1.15,2.31,2.3,3.46,3.44.15.15.3.29.48.46-.06.1-.11.24-.2.34-.38.4-.77.78-1.17,1.17-.25.24-.34.23-.58-.01-1.62-1.6-3.24-3.2-4.87-4.8-.51-.5-1.01-1.01-1.53-1.5-.57-.54-1.29-.44-1.68.24-.49.86-.95,1.74-1.43,2.61-.08.14-.16.27-.25.41-.03,0-.05,0-.08,0-1.41-4.28-2.82-8.55-4.25-12.9Z"/>
              <path class="cls-2" d="m209.34,171.77c2.55,0,5.1,0,7.65,0,1.06,0,2.12.01,3.17,0,.77,0,1.14-.39,1.19-1.15.01-.19.01-.38.01-.57,0-2.4,0-4.81,0-7.21,0-.13,0-.25-.04-.38-.14-.56-.56-.82-1.3-.82-4.59,0-9.19,0-13.78,0-2.52,0-5.05,0-7.57,0-.3,0-.64.07-.9.21-.4.2-.45.62-.45,1.03,0,2.26,0,4.52,0,6.78,0,.41.01.81.03,1.22,0,.27.15.47.37.63.33.24.71.25,1.09.25,3.51,0,7.02,0,10.52,0h0Z"/>
              <path class="cls-2" d="m208.96,180.35c3.55,0,7.11,0,10.66,0,.79,0,1.29.53,1.18,1.24-.07.43-.43.8-.86.86-.2.03-.4.04-.59.04-6.9,0-13.8,0-20.7,0-.39,0-.79.02-1.15-.23-.37-.27-.47-.63-.41-1.05.06-.4.42-.75.8-.82.13-.02.27-.04.4-.04,3.55,0,7.11,0,10.66,0h0Z"/>
              <path class="cls-2" d="m208.96,177.04c-3.47,0-6.94,0-10.41,0-.15,0-.31-.02-.46-.01-.55.02-1-.49-1.02-1.01-.02-.5.38-.99.92-1.08.15-.03.31-.03.46-.03,7,0,13.99,0,20.99,0,.75,0,1.12.23,1.34.78.16.41-.16,1.2-.71,1.3-.23.04-.47.05-.7.05-3.47,0-6.94,0-10.41,0,0,0,0,0,0,0Z"/>
              <path class="cls-2" d="m208.91,185.74c3.52,0,7.05,0,10.57,0,.74,0,1.09.23,1.3.83.12.34-.07.94-.4,1.08-.29.12-.62.22-.93.22-4.47.01-8.95,0-13.42,0-2.49,0-4.97,0-7.46,0-.22,0-.43-.01-.65-.05-.5-.08-.87-.54-.86-1.03.02-.53.42-.97.94-1.03.19-.02.38-.02.57-.02,3.44,0,6.89,0,10.33,0,0,0,0,0,0,0Z"/>
            </g>
            <g>
              <path class="cls-2" d="m247.13,160.25c-.11.66-.57,2.51-1.81,3.94-1.43,1.64-3.52,2.05-4.15,2.2.61.1,2.42.48,3.97,2.05,1.52,1.54,1.89,3.3,1.99,3.92.06-.61.3-2.19,1.52-3.63,1.67-1.96,3.94-2.23,4.44-2.28-.62-.08-2.3-.38-3.8-1.76-1.85-1.72-2.11-3.9-2.16-4.44Z"/>
              <path class="cls-2" d="m241.95,159.32c-.05.28-.24,1.06-.76,1.66-.6.69-1.49.86-1.75.93.26.04,1.02.2,1.68.87.64.65.8,1.39.84,1.66.03-.26.12-.92.64-1.53.7-.83,1.66-.94,1.87-.96-.26-.03-.97-.16-1.6-.75-.78-.73-.89-1.65-.91-1.88Z"/>
              <path class="cls-2" d="m239.43,166.3c-.07.42-.36,1.58-1.14,2.48-.9,1.03-2.21,1.29-2.61,1.38.39.06,1.52.3,2.5,1.29.96.97,1.19,2.08,1.25,2.47.04-.39.19-1.38.96-2.28,1.05-1.23,2.48-1.4,2.79-1.43-.39-.05-1.45-.24-2.39-1.11-1.17-1.08-1.33-2.45-1.36-2.79Z"/>
            </g>
          </g>
          <g>
            <path class="cls-3" d="m164.54,325.32c19.6,0,35.54-15.94,35.54-35.54s-15.94-35.54-35.54-35.54-35.54,15.94-35.54,35.54,15.94,35.54,35.54,35.54h0Zm-.35-34.08h-22.46c-.93,0-1.68-.75-1.68-1.68s.74-1.69,1.68-1.69h20.78v-22.92c0-.93.74-1.69,1.68-1.69s1.68.75,1.68,1.69v24.6c0,.94-.75,1.68-1.68,1.68h0Z"/>
            <path class="cls-3" d="m125.82,266.93h-27.18c-.74,0-1.33-.67-1.33-1.51s.59-1.51,1.33-1.51h27.18c.74,0,1.33.67,1.33,1.51s-.59,1.51-1.33,1.51Z"/>
            <path class="cls-3" d="m118.8,283.17h-30.81c-.84,0-1.51-.67-1.51-1.51s.67-1.51,1.51-1.51h30.81c.84,0,1.51.67,1.51,1.51s-.67,1.51-1.51,1.51Z"/>
            <path class="cls-3" d="m118.8,299.41h-30.81c-.84,0-1.51-.67-1.51-1.51s.67-1.51,1.51-1.51h30.81c.84,0,1.51.67,1.51,1.51s-.67,1.51-1.51,1.51Z"/>
            <path class="cls-3" d="m125.82,315.65h-27.18c-.74,0-1.33-.67-1.33-1.51s.59-1.51,1.33-1.51h27.18c.74,0,1.33.67,1.33,1.51s-.59,1.51-1.33,1.51Z"/>
          </g>
          <g>
            <path class="cls-2" d="m170.48,419.56v19.58c0,3.6-2.93,6.53-6.53,6.53h-5.8v9.53c0,.67-.54,1.21-1.21,1.21h-35.78c-.67,0-1.21-.54-1.21-1.21v-9.53h-5.8c-3.6,0-6.53-2.93-6.53-6.53v-19.58c0-3.6,2.93-6.53,6.53-6.53h5.8v-18.25c0-.67.54-1.21,1.21-1.21h35.78c.67,0,1.21.54,1.21,1.21v18.25h5.8c3.6,0,6.53,2.93,6.53,6.53Zm-55.63,1.9c0,.67.54,1.21,1.21,1.21h3.87c.67,0,1.21-.54,1.21-1.21s-.54-1.21-1.21-1.21h-3.87c-.67,0-1.21.54-1.21,1.21Zm7.52-8.43h33.36v-17.04h-33.36v17.04Zm33.36,23.05h-33.36v17.9h33.36v-17.9Z"/>
            <path class="cls-2" d="m127.9,442.96h22.3c.67,0,1.21-.54,1.21-1.21s-.54-1.21-1.21-1.21h-22.3c-.67,0-1.21.54-1.21,1.21s.54,1.21,1.21,1.21Z"/>
            <path class="cls-2" d="m127.9,449.52h22.3c.67,0,1.21-.54,1.21-1.21s-.54-1.21-1.21-1.21h-22.3c-.67,0-1.21.54-1.21,1.21s.54,1.21,1.21,1.21Z"/>
          </g>
          <g>
            <path class="cls-2" d="m329.73,379.77c.02.53-.09,1.06-.46,1.46-.64.69-2.02,1-2.92,1.04-.39.01-.72-.06-1.05-.27-.47-.29-.78-.76-.9-1.3-.13-.59-.06-1.24.28-1.75.57-.86,1.92-1.27,2.88-1.46.56.02.97.13,1.39.52.49.45.74,1.11.77,1.77Zm-2.03.32c-.08-.48-.35-.92-.74-1.2-.36-.25-.71-.25-1.13-.19-.39.14-.66.29-.84.68-.21.46-.19.99,0,1.46.14.36.38.67.74.83.2.09.6.17.81.1.39-.06.7-.19.94-.52.25-.33.31-.76.24-1.16Zm1.47-.76c-.15-.49-.48-.97-.95-1.2-.33-.16-.64-.12-.99-.07l-.38.15c.66.42,1.28.9,1.45,1.71.1.46-.21,1.45-.19,1.49l.19-.11c.35-.1.6-.26.78-.59.24-.42.22-.93.08-1.38Z"/>
            <path class="cls-2" d="m336.38,383.52l-.19.08c-.7-.18-1.52-.22-2.24-.28.33-.78-.03-3.51.39-3.91.66,0,1.49.13,2.14.27.17.38.04,3.35-.1,3.83Zm-.47-1.55c-.01-.07-.03-.11-.06-.17-.39-.08-.87-.17-1.27-.14.02.38.06.86-.12,1.2.42.06.88.16,1.31.15.19-.27.21-.71.14-1.03Z"/>
            <path class="cls-2" d="m322.96,388.03c.08-.01.15-.02.23-.02.69-.01,1.43.16,2.11.27l3.52.53,3.92.57c.53.08,1.09.1,1.61.21.16.03.22.05.33.17-.02.17-.05.19-.16.32l-.1.04c-1.19-.13-11.18-1.6-11.45-1.83l-.02-.26Z"/>
            <path class="cls-2" d="m322.88,390.79c.25-.02,10.9,1.61,11.55,1.8.07.02.11.05.16.09.02.16-.01.16-.1.29-.27.12-10.48-1.53-11.48-1.77-.13-.13-.11-.24-.12-.41Z"/>
            <path class="cls-2" d="m322.96,393.86c.08-.01.15-.02.23-.02.69-.01,1.43.16,2.11.27l3.52.53,3.92.57c.53.08,1.09.1,1.61.21.16.03.22.05.33.17-.02.17-.05.19-.16.32l-.1.04c-1.19-.13-11.18-1.6-11.45-1.83l-.02-.26Z"/>
            <path class="cls-2" d="m322.88,396.61c.25-.02,10.9,1.61,11.55,1.8.07.02.11.05.16.09.02.16-.01.16-.1.29-.27.12-10.48-1.53-11.48-1.77-.13-.13-.11-.24-.12-.41Z"/>
            <path class="cls-2" d="m345.08,375.09c-.02,2.39-.19,4.8-.29,7.18l-.5,11.49-.22,4.48c-.02.56.02,1.27-.12,1.82,0,.03-.02.07-.03.1.02.07.05.08,0,.15-.15.24-4.34,3.22-4.74,3.4-15.87-3.04-31.71-6.17-47.53-9.39-.02,2.04-.14,4.13-.01,6.16-.06,3.63-.06,7.26-.07,10.88,0,1.78.08,3.6-.02,5.37-.03.47-.02.95-.02,1.42-.52.3-1.04.62-1.55.94-4.13-1.04-8.23-2.29-12.34-3.43-1.69-.48-3.4-.98-5.11-1.36-.01-.36-.03-.73-.05-1.09l-.34-21.73c.02-.76.06-1.86-.14-2.58-2.41-.29-4.85-.83-7.25-1.28-2.06-.38-4.14-.71-6.19-1.15.03,1.14-.02,2.33.13,3.46-.01,2.27.09,4.54.15,6.81l.26,10.57v1.29c-.5.21-.99.43-1.48.66-2.5-.63-4.99-1.36-7.5-2.05-1.9-.51-3.83-.97-5.7-1.57-.01-.51,0-1.02-.08-1.52.02-.62-.03-1.26-.07-1.87-.06-1.21-.12-2.42-.16-3.63-.15-4.62-.35-9.23-.58-13.84l-.03-1.19c-1.35-.33-2.72-.54-4.09-.8l-9.3-1.8c.05.52.02,1.05.1,1.56l.88,16.83.02.69c-.48.16-.97.35-1.46.52-1.58-.5-3.21-.87-4.83-1.29-1.13-.3-2.25-.65-3.39-.93-.28-.07-.79-.13-.98-.36-.26-.29-.99-16.37-1.19-18.09-.73.09-1.13-.03-1.79-.3-.08-1.72-.2-3.45-.21-5.16,1.39-.41,2.83-.66,4.24-.94,1.48-.3,2.96-.65,4.45-.86-.05-1.73-.15-3.47-.16-5.2,1.64-.37,3.34-.59,4.99-.87,1.39-.23,2.78-.55,4.18-.7.72-.08,1.42.09,2.14.12.58.02,1.14-.1,1.71-.24,0-.79.05-1.61-.01-2.39-.78-.22-3.04-1.15-3.74-1.56.15-2.6.62-5.2.84-7.81,1.68-.08,3.39.01,5.06.06,1.16.02,2.36-.01,3.52.09-.28,2.88-.65,5.75-.86,8.64l-.51.2c0,.72.02,1.46.07,2.18,1.06-.01,2.62-.05,3.41-.86.15-.15.22-.3.24-.51-.08-.14-.12-.2-.28-.23-.33-.07-.72-.01-1.06-.03,0-1.46.01-2.91.03-4.37.06-3.56.36-6.82,3.02-9.46.08-.07.16-.15.24-.22.08-.08.17-.15.26-.22.09-.07.17-.14.27-.21.09-.06.19-.13.28-.19.09-.06.19-.12.28-.17.1-.06.2-.12.3-.16.09-.06.2-.1.3-.15.09-.05.2-.09.3-.14.1-.03.21-.07.31-.12.1-.03.21-.07.33-.09.1-.03.21-.07.33-.09.1-.02.21-.05.33-.07.1-.02.22-.03.33-.05.12-.02.22-.03.34-.05.12,0,.22-.01.34-.01.1-.01.22-.01.34-.01,1.8.02,3.42.77,4.67,2.06,1.87,1.91,2.68,4.28,2.91,6.9l5.52.38c.01-.27.01-.55.05-.81,1.13-.38,2.46-.48,3.63-.65l6.34-.91c1.13-.17,2.26-.35,3.39-.54.8-.13,1.61-.3,2.42-.33,1-.02,2.03.07,3.01.13,2.1.12,4.18.28,6.26.38l22.92,1.28,16.55.9c1.76.08,3.5.17,5.26.27.72.05,1.54.02,2.24.16.07.13.08.22.09.36.05,2.22-.14,4.49-.21,6.72-.02.78.01,2.93-.16,3.56-.01.06-.05.12-.08.17-1.06.41-2.81,1.15-3.86,1.37,0,.01.01.02.01.03.21.47-.13,2.6.08,2.78.74-.02,1.68-.05,2.41.17.17.33.15,1.11.05,1.46-.01.05-.03.08-.05.13,1.22.2,7.6.77,8.13,1.04.07.13.09.22.09.36Zm-9.2-7.05c.24-.06.48-.09.69-.23.35-.08.91-.23,1.2-.44.06-.14.09-.27.1-.42.07-.91.43-9.07.29-9.45-.03-.07-.02-.05-.05-.1l-.83.06c-.34.03-.68.07-1.01.09.06.12.08.21.08.34.02.76-.03,1.52-.07,2.27l-.16,4.3c-.02.74.01,2.84-.15,3.4-.02.07-.06.13-.09.2Zm-52.91-9.87c1.5.19,3.04.26,4.55.36,2.72.2,5.45.37,8.17.54l16.79,1.12,6.72.45c1,.07,2.19.03,3.15.27.93.23,1.84.86,2.41,1.61,1.25,1.59,1.04,3.49.91,5.35-.03.56-.02,1.12-.09,1.66-.01.1-.05.2-.08.29,1.01.09,3.45.44,4.35.28.85-.15,1.72-.54,2.55-.8.54-.19,1.32-.35,1.79-.64.38-.09.92-.21,1.22-.45.05-.09.08-.19.08-.29.08-1,.43-10.33.36-10.51-.01-.05-.02-.06-.05-.1-8.2-.56-16.41-.87-24.62-1.37l-18.18-1.05c-3.34-.19-6.69-.47-10.03-.56v3.85Zm42.26,14.35l.83.08c.17-.13.19-.16.22-.38.06-.48.12-1.36-.05-1.82-.28-.03-.5-.05-.78-.01.09.48.03,1.71-.22,2.13Zm-58.17-15.62c.17.21.34.26.61.29.58.07,1.29.06,1.86-.1,2.86-.43,5.77-.98,8.66-1.23v2c1.43.07,2.86.23,4.31.28,0-.58.1-3.6-.14-3.85h-.14c-2.86.38-5.72.87-8.57,1.29-2.06.3-4.16.5-6.19.88-.12.02-.21.07-.3.13-.09.14-.09.15-.09.31Zm10.56-.52l-.03-.04c-1.3.23-2.61.44-3.91.64-.71.1-1.49.15-2.19.33v.09h-.03v-.02s-.05.01-.05.01h.05s.01.08.01.08v-.07s.38.06.38.06c1.92.1,3.88.31,5.8.35.01-.43.08-1.01-.02-1.43Zm-17.58,8.93c-2.22-.2-4.47-.33-6.68-.59l-.03,1.35c3.28.47,6.61.78,9.92,1.14l10.84,1.22,28.15,3.27c1.59.17,12.83,1.35,13.25,1.57.19.33.06,1.4-.02,1.77-.01.07-.05.12-.08.17l3.38.42c.49.06,1.02.07,1.5.19.19-.36.17-1.2.09-1.61.48-.2.93-.43,1.43-.62.98-.35,2.04-.62,2.99-1.05.23-.31.5-5.32.54-6.1.06-1.42-.19-2.86-1.2-3.95-1.13-1.22-2.48-1.27-4.03-1.32-.49.01-1.01-.1-1.43.2-.48.13-.71.43-1.13.63,0,.02-.01.06-.02.08-.08.26-.27.5-.4.74-.27.51-.41,1.01-.54,1.57-.33,1.4-.51,2.85-.71,4.27-.07.57-.09,1.16-.22,1.73-.03.14-.07.21-.16.33l.02.17c-.21.15-.65.06-.9.02-5.24-.61-10.5-1.09-15.75-1.65l-29.87-3.12-8.93-.86Zm40.78,7.39c4.69.56,9.38,1.2,14.09,1.68l.07-.03c.09-.15.16-.36.12-.54-.02-.08-.05-.09-.12-.13-.48-.22-2.83-.34-3.56-.43l-16.48-1.92-28.04-3.27-8.08-.9c-1.83-.22-3.68-.49-5.52-.62.01.23-.01.35.12.54.29.13,4.12.48,4.84.56,4.27.52,8.54,1.01,12.83,1.48l29.74,3.59Zm-46.7-15.3c.14-.22.37-.36.47-.61l-.16-.09c-1.18,0-1.85-.22-2.75.69-1.63,1.63-1.42,4.59-1.5,6.72-.05,1.22-.12,2.44-.22,3.66.97-.14,1.94-.31,2.9-.52.02-1,.06-1.99.12-2.99.01-2.1-.07-5.05,1.15-6.84Zm6.39-.8c-.05-.3-.08-.62-.14-.92-.21,0-.44,0-.66.02-.42.08-.78.12-1.07.47l-.02.13c.12.15.21.22.41.24.15.01.3.01.44.02l1.05.03Zm-.8-3.28c-.54.2-1.01.47-1.51.74.08.33.33,1.54.54,1.68h.03c.54-.13,1.06-.27,1.61-.27-.1-.45-.3-1.85-.66-2.15Zm-1.09-2c-.07.02-.13.05-.2.06-.06.02-.13.06-.19.08-.06.02-.12.06-.19.09-.06.02-.12.06-.17.09-.06.05-.1.08-.16.12-.06.05-.1.08-.16.13-.05.03-.1.08-.15.13-.05.05-.09.09-.14.15.16.33.65,1.51.91,1.69l.1-.02c.47-.26.93-.52,1.43-.72-.22-.48-.62-1.52-1.08-1.79Zm-4.12-3.02c-.21.57-.35,1.16-.5,1.75.65.13,1.18.36,1.75.66.24-.38.5-.77.78-1.13-.15.43-.43.81-.68,1.2.3.27.61.51.87.8l.42.51c.41-.48.87-.72,1.44-.94-1.06-1.5-2.29-2.4-4.09-2.85Zm-2.4,1.8c.52-.08,1.07-.17,1.61-.15h.13c.26-.28.38-1.26.48-1.68-.51-.03-1.11-.1-1.62,0-.24.02-.38.01-.58.16-.24.5-.01,1.13-.01,1.66Zm-2.32-.75c.21.45.41.91.71,1.32l.13.1c.5-.13.94-.47,1.44-.63-.06-.35-.12-1.49-.27-1.7h-.07c-.68.22-1.37.47-1.94.91Zm-1.93,1.84c.51.2.88.44,1.26.85l.13.12c.31-.12.94-.98,1.28-1.26-.3-.4-.62-1.2-.9-1.46-.68.52-1.22,1.08-1.77,1.75Zm-1.01,1.97l1.57.58c.36-.34.56-.97.83-1.4-.4-.41-.84-.92-1.4-1.06-.41.61-.73,1.2-1,1.87Zm-.56,2.36c.58.07,1.16.14,1.73.22.09-.62.27-1.22.43-1.83-.56-.21-1.15-.38-1.69-.63-.21.73-.36,1.48-.48,2.24Zm1.64,1.69c.01-.43.02-.86.07-1.29-.57-.08-1.15-.21-1.72-.26-.07.5-.1,1-.14,1.5.59.02,1.2.03,1.79.05Zm-1.7,8.49c1.14.08,2.28.23,3.42.3.02-.84.07-1.66.08-2.5.08-2.2-.05-4.9,1.7-6.54.62-.58,1.35-.84,2.19-.8,1.52.06,3.07.19,4.6.31-.27-1.94-.92-3.99-2.56-5.21-.81-.62-1.77-.81-2.76-.76-1.41.3-2.46.91-3.27,2.13-1.75,2.65-1.19,7.19-1.23,10.27,0,.35.01.55-.37.65-.08.22,0,.42-.05.64-.17.78-1.11,1.2-1.75,1.51Zm-3.41-3.18c.09-.03.24-.06.28-.15.16-.4.16-1.48.21-1.94.2-1.93.36-3.91.64-5.83-2.51-.06-5.02-.1-7.53-.14-.4,2.34-.51,4.75-.81,7.1,2.93,1.19,3.95,1.87,7.22.97Zm-14.89,5.02c1.2.14,2.41.23,3.61.41l4.19.47c.63.08,1.32.22,1.96.21.55,0,1.12-.14,1.65-.23l2.91-.54c2.22-.4,5.04-.73,7.17-1.37-1.14-.14-2.28-.24-3.43-.34-1.3.28-4,.86-5.27.79-1.76-.1-3.59-.65-5.34-.59-.68.02-1.37.16-2.05.27-1.78.29-3.6.72-5.39.93Zm21.49-.42c-.08-.02-.12-.02-.21-.01-2.65.41-5.31.92-7.95,1.4-1.09.2-2.19.47-3.29.61-.01.29-.05.63.02.92.06.03.08.06.15.05,3.75-.7,7.53-1.37,11.26-2.15.03-.26.12-.57.02-.8Zm-23.16.72c.06,1.55.08,3.12.21,4.66,3.07-.59,6.15-1.22,9.21-1.87.58-.1,1.16-.21,1.73-.36v-1.16c-2.55-.33-5.09-.62-7.62-.9-1.16-.13-2.36-.33-3.53-.36Zm8.78,7.79c6.24-1.47,12.48-2.91,18.72-4.31.01-.57.13-3.4-.06-3.7h-.17c-5.58,1.05-11.14,2.14-16.69,3.29-3.68.71-7.36,1.47-11.02,2.25-2.53.52-5.06,1-7.59,1.58.06,1,.1,2,.14,3,.02.57-.01,1.27.13,1.82,1.65-.36,3.28-.78,4.92-1.16,3.89-.88,7.76-1.8,11.63-2.77Zm55.93,13.14c.4-.05,3.4-1.4,4.13-1.7l18.82-7.66c.73-.29,3.24-1.18,3.76-1.57.03-.08.07-.14.08-.23.02-.31.15-1.39-.02-1.61h-.34c-.41-.17-.85,0-1.25.13-1.56.51-3.1,1.16-4.63,1.76l-9.99,3.88c-3.7,1.42-7.39,2.86-11.08,4.33-1.43.57-2.97,1.05-4.34,1.71-.08.03-.15.09-.22.15-.19.06-.41,0-.59-.02-2.35-.37-4.68-.88-7.02-1.28-2.6-.45-46.38-7.69-48.95-8.3.02.93.01.23,0,1.16,2.6.57,46.36,9.52,48.97,10.02,2.5.48,5.01,1.04,7.52,1.42,1.4-.66,2.91-1.09,4.3-1.8m50.1-11.99c-.01-.08-.03-.16-.08-.23l-13.05-1.55c-1.06-.13-5.54-.86-6.31-.7.1.29.21.95.08,1.25-.07.15-.21.24-.37.3-.64.2-1.58-.13-2.25-.19.16.31.14,1.68.01,2.03-.01.03-.03.08-.06.1-.55.35-1.44.71-2.08.87.2.4-.02,4.06-.03,4.71l-.23,10.56c-.01.73.02,3.7-.13,4.13-.01.03-.03.08-.06.12,1.44.22,2.88.57,4.31.85l9.64,1.92,4.23.84c.51.1,1.12.17,1.61.35,1.16.21,2.33.47,3.49.66.05-.07.09-.14.12-.22.16-.61.17-3.76.21-4.61l.72-15.09.2-4.41c.02-.52.12-1.18.05-1.7Zm3.78-2.15c-1.09-.12-6.9-.99-7.5-.74l-.03.09s-.08.03-.12.03c-.4.07-1.64-.05-1.97-.26-.15-.19-.45-.2-.68-.23-1.49-.19-2.99-.31-4.48-.49-.93-.1-3.36-.51-4.14-.38-1.22.2-2.37.88-3.6,1.16,1.92.2,3.82.48,5.74.71l8.07.94c1.33.15,3.96.64,5.16.56.45-.03,3.1-1.02,3.47-1.3t.08-.09Z"/>
            <polygon class="cls-4" points="271.45 357.39 271.4 357.38 271.44 357.37 271.45 357.39"/>
            <polygon class="cls-4" points="271.47 357.39 271.46 357.46 271.45 357.39 271.47 357.39"/>
            <path class="cls-2" d="m243.18,355.2c-.14,1.85-.31,3.7-.51,5.55-2.13-.01-4.26-.14-6.38-.21.17-1.83.41-3.67.5-5.5l.89.02,3.82.08c.51.01,1.19-.05,1.68.07Z"/>
            <path class="cls-4" d="m242.66,365.77s-.03,0-.05.01c0-.01.01-.01.01-.02h.03Z"/>
          </g>
          <g>
            <path class="cls-2" d="m19.65,160.29h10.02v6.92h-5.16c-.33,0-.59.27-.59.59s.27.59.59.59h5.16v8.76h-1.36c-.33,0-.59.27-.59.59s.27.59.59.59h1.36v8.76h-5.16c-.33,0-.59.27-.59.59s.27.59.59.59h5.16v8.76h-1.36c-.33,0-.59.27-.59.59s.27.59.59.59h1.36v8.76h-5.16c-.33,0-.59.27-.59.59s.27.59.59.59h5.16v3.24c-1.48-.98-3.25-1.56-5.15-1.56-1.78,0-3.45.51-4.87,1.38v-50.96Z"/>
            <circle class="cls-2" cx="24.52" cy="219.17" r="7.12"/>
            <path class="cls-2" d="m83.15,224.01h-50.69c.86-1.41,1.36-3.07,1.36-4.84,0-1.92-.58-3.7-1.58-5.18h4.12v1.36c0,.33.27.59.59.59s.59-.27.59-.59v-1.36h8.76v5.16c0,.33.27.59.59.59s.59-.27.59-.59v-5.16h8.76v1.36c0,.33.27.59.59.59s.59-.27.59-.59v-1.36h8.76v5.16c0,.33.27.59.59.59s.59-.27.59-.59v-5.16h8.76v1.36c0,.33.27.59.59.59s.59-.27.59-.59v-1.36h5.81v10.02Z"/>
            <g>
              <polygon class="cls-2" points="40.84 174.49 58.04 184.43 58.04 204.29 40.84 194.36 40.84 174.49"/>
              <polygon class="cls-2" points="61.05 204.29 61.05 184.43 78.25 174.5 78.25 194.36 61.05 204.29"/>
              <polygon class="cls-2" points="59.54 162.69 76.74 172.62 59.54 182.55 42.34 172.62 59.54 162.69"/>
            </g>
          </g>
        </g>
        <g>
          <path class="cls-2" d="m170.66,521.35v71.33h-9.49v9.49h-9.49v9.54h-52.34v-71.33h9.49v-9.54h9.54v-9.49h52.29Zm-28.53,76.1h-33.3v2.36h33.3v-2.36Zm0-9.5h-33.3v2.36h33.3v-2.36Zm0-9.54h-33.3v2.36h33.3v-2.36Zm0-9.49h-33.3v2.36h33.3v-2.36Zm0-9.54h-33.3v2.36h33.3v-2.36Zm0-9.49h-33.3v2.36h33.3v-2.36Zm16.68-16.68h-47.62v7.18h40.49v59.43h7.13v-66.61Zm9.49-9.5h-47.57v7.13h40.44v59.48h7.13v-66.61Z"/>
          <g>
            <g>
              <path class="cls-2" d="m31.64,514.32c-.19.7-.33,1.41-.56,2.09-1.3,3.73-3.38,6.95-6.31,9.62-.64.58-1.28.9-2.16.81-.72-.07-1.45-.02-2.17,0-.46.02-.89.42-.95.8-.08.52.14.97.64,1.16.26.1.56.14.84.14,11.32,0,22.64,0,33.96,0,.19,0,.38-.01.56-.06.51-.12.85-.49.87-.91.04-.66-.36-1.13-1.04-1.15-.93-.02-1.86,0-2.79,0-.3,0-.57-.07-.8-.27-.14-.13-.3-.24-.44-.36-1.75-1.5-3.19-3.27-4.38-5.24-1-1.65-1.81-3.39-2.35-5.25-.18-.62-.32-1.26-.46-1.89-.01-.04.07-.15.12-.16.2-.03.41-.05.62-.05,7.65,0,15.3,0,22.95-.01.55,0,1.12-.09,1.65-.27,1.91-.64,3.1-2.4,3.1-4.51,0-13.67,0-27.34,0-41.01,0-.14,0-.29-.02-.43-.1-1.68-.87-2.98-2.32-3.85-.93-.56-1.97-.67-3.03-.67-4.62,0-9.24,0-13.86,0-12.5,0-25,0-37.51,0-2.64,0-5.28,0-7.92.02-.9,0-1.75.27-2.5.78-1.43.97-2.09,2.36-2.09,4.06,0,13.71,0,27.42,0,41.12,0,.31.02.64.08.94.43,2.23,2.25,3.76,4.53,3.81.7.01,1.41,0,2.12,0,6.94,0,13.89,0,20.83,0,.3,0,.6.04.93.06-.07.26-.12.45-.17.64Zm-26.16-13.25c-.01-.31-.04-.61-.04-.9,0-8.78,0-17.56,0-26.34,0-2.11-.01-4.21,0-6.32,0-.88.4-1.59,1.13-2.08.51-.34,1.09-.42,1.69-.42,4.84,0,9.68,0,14.51,0,14.93,0,29.86,0,44.79,0,.8,0,1.55.15,2.14.74.39.4.66.87.68,1.44.02.67,0,1.34,0,2,0,5.38,0,10.76,0,16.14,0,5.18,0,10.36,0,15.54,0,.05,0,.11,0,.2H5.48Zm64.91,2.42c0,1.78.01,3.56.03,5.34.01,1.07-.37,1.93-1.36,2.39-.42.19-.92.28-1.39.28-6.31.02-12.62.01-18.93.01-13.13,0-26.26,0-39.39,0-.51,0-1.03.01-1.54-.02-1.31-.07-2.33-1.08-2.35-2.38-.03-1.89,0-3.78-.02-5.67,0-.26.16-.24.33-.24,1.68,0,3.36,0,5.04,0,19.6,0,39.2,0,58.8,0,.25,0,.5,0,.76,0,0,.13.02.21.02.29Zm-43.29,23.33c.07-.1.12-.19.18-.26.74-.88,1.54-1.73,2.22-2.66,1.75-2.36,3.04-4.97,3.86-7.8.2-.68.32-1.39.46-2.09.07-.38.06-.39.46-.39,1.51,0,3.02,0,4.53,0,.91,0,1.83,0,2.74,0,.43,0,.42,0,.49.41.3,1.85.91,3.6,1.67,5.3.79,1.78,1.78,3.45,2.97,4.99.54.71,1.17,1.35,1.75,2.03.11.13.21.26.36.46h-21.69Z"/>
              <path class="cls-2" d="m69.61,503.19c-19.6,0-39.2,0-58.8,0-1.68,0-3.36,0-5.04,0-.16,0-.33-.02-.33.24,0,1.89-.02,3.78.02,5.67.02,1.3,1.05,2.31,2.35,2.38.51.03,1.03.02,1.54.02,13.13,0,26.26,0,39.39,0,6.31,0,12.62,0,18.93-.01.47,0,.97-.09,1.39-.28.99-.46,1.38-1.31,1.36-2.39-.02-1.78-.02-3.56-.03-5.34,0-.08,0-.16-.02-.29-.26,0-.51,0-.76,0Zm-33.15,5.08c-.49-.1-.72-.48-.71-.99,0-.47.26-.86.73-.95.39-.08.8-.09,1.21-.08.57,0,1.14.01,1.7.09.48.07.71.4.74.87.03.53-.16.83-.61,1.04-.5.24-1.03.11-1.77.17-.29-.03-.8-.04-1.29-.15Z"/>
              <path class="cls-2" d="m48.79,526.81h-21.69c.07-.1.12-.19.18-.26.74-.88,1.54-1.73,2.22-2.66,1.75-2.36,3.04-4.97,3.86-7.8.2-.68.32-1.39.46-2.09.07-.38.06-.39.46-.39,1.51,0,3.02,0,4.53,0,.91,0,1.83,0,2.74,0,.43,0,.42,0,.49.41.3,1.85.91,3.6,1.67,5.3.79,1.78,1.78,3.45,2.97,4.99.54.71,1.17,1.35,1.75,2.03.11.13.21.26.36.46Z"/>
              <path class="cls-2" d="m38.56,482.68c.45.14.88.27,1.3.41.62.2,1.23.41,1.85.62.96.32,1.91.65,2.87.96.59.2,1.19.37,1.78.57.92.31,1.83.63,2.75.95.71.24,1.42.48,2.12.73.08.03.14.09.21.14-.07.06-.13.14-.21.19-.92.5-1.84,1-2.76,1.5-.14.08-.28.16-.41.26-.46.37-.54,1.03-.12,1.46.89.92,1.8,1.83,2.71,2.74,1.15,1.15,2.31,2.3,3.46,3.44.15.15.3.29.48.46-.06.1-.11.24-.2.34-.38.4-.77.78-1.17,1.17-.25.24-.34.23-.58-.01-1.62-1.6-3.24-3.2-4.87-4.8-.51-.5-1.01-1.01-1.53-1.5-.57-.54-1.29-.44-1.68.24-.49.86-.95,1.74-1.43,2.61-.08.14-.16.27-.25.41-.03,0-.05,0-.08,0-1.41-4.28-2.82-8.55-4.25-12.9Z"/>
              <path class="cls-2" d="m22.34,480.24c2.55,0,5.1,0,7.65,0,1.06,0,2.12.01,3.17,0,.77,0,1.14-.39,1.19-1.15.01-.19.01-.38.01-.57,0-2.4,0-4.81,0-7.21,0-.13,0-.25-.04-.38-.14-.56-.56-.82-1.3-.82-4.59,0-9.19,0-13.78,0-2.52,0-5.05,0-7.57,0-.3,0-.64.07-.9.21-.4.2-.45.62-.45,1.03,0,2.26,0,4.52,0,6.78,0,.41.01.81.03,1.22,0,.27.15.47.37.63.33.24.71.25,1.09.25,3.51,0,7.02,0,10.52,0h0Z"/>
              <path class="cls-2" d="m21.96,488.82c3.55,0,7.11,0,10.66,0,.79,0,1.29.53,1.18,1.24-.07.43-.43.8-.86.86-.2.03-.4.04-.59.04-6.9,0-13.8,0-20.7,0-.39,0-.79.02-1.15-.23-.37-.27-.47-.63-.41-1.05.06-.4.42-.75.8-.82.13-.02.27-.04.4-.04,3.55,0,7.11,0,10.66,0h0Z"/>
              <path class="cls-2" d="m21.96,485.52c-3.47,0-6.94,0-10.41,0-.15,0-.31-.02-.46-.01-.55.02-1-.49-1.02-1.01-.02-.5.38-.99.92-1.08.15-.03.31-.03.46-.03,7,0,13.99,0,20.99,0,.75,0,1.12.23,1.34.78.16.41-.16,1.2-.71,1.3-.23.04-.47.05-.7.05-3.47,0-6.94,0-10.41,0,0,0,0,0,0,0Z"/>
              <path class="cls-2" d="m21.91,494.22c3.52,0,7.05,0,10.57,0,.74,0,1.09.23,1.3.83.12.34-.07.94-.4,1.08-.29.12-.62.22-.93.22-4.47.01-8.95,0-13.42,0-2.49,0-4.97,0-7.46,0-.22,0-.43-.01-.65-.05-.5-.08-.87-.54-.86-1.03.02-.53.42-.97.94-1.03.19-.02.38-.02.57-.02,3.44,0,6.89,0,10.33,0,0,0,0,0,0,0Z"/>
            </g>
            <g>
              <path class="cls-2" d="m60.13,468.72c-.11.66-.57,2.51-1.81,3.94-1.43,1.64-3.52,2.05-4.15,2.2.61.1,2.42.48,3.97,2.05,1.52,1.54,1.89,3.3,1.99,3.92.06-.61.3-2.19,1.52-3.63,1.67-1.96,3.94-2.23,4.44-2.28-.62-.08-2.3-.38-3.8-1.76-1.85-1.72-2.11-3.9-2.16-4.44Z"/>
              <path class="cls-2" d="m54.95,467.79c-.05.28-.24,1.06-.76,1.66-.6.69-1.49.86-1.75.93.26.04,1.02.2,1.68.87.64.65.8,1.39.84,1.66.03-.26.12-.92.64-1.53.7-.83,1.66-.94,1.87-.96-.26-.03-.97-.16-1.6-.75-.78-.73-.89-1.65-.91-1.88Z"/>
              <path class="cls-2" d="m52.43,474.78c-.07.42-.36,1.58-1.14,2.48-.9,1.03-2.21,1.29-2.61,1.38.39.06,1.52.3,2.5,1.29.96.97,1.19,2.08,1.25,2.47.04-.39.19-1.38.96-2.28,1.05-1.23,2.48-1.4,2.79-1.43-.39-.05-1.45-.24-2.39-1.11-1.17-1.08-1.33-2.45-1.36-2.79Z"/>
            </g>
          </g>
          <path class="cls-3" d="m-22.46,633.8c19.6,0,35.54-15.94,35.54-35.54s-15.94-35.54-35.54-35.54-35.54,15.94-35.54,35.54,15.94,35.54,35.54,35.54h0Zm-.35-34.08h-22.46c-.93,0-1.68-.75-1.68-1.68s.74-1.69,1.68-1.69h20.78v-22.92c0-.93.74-1.69,1.68-1.69s1.68.75,1.68,1.69v24.6c0,.94-.75,1.68-1.68,1.68h0Z"/>
        </g>
        <g>
          <g>
            <path class="cls-3" d="m351.54,633.8c19.6,0,35.54-15.94,35.54-35.54s-15.94-35.54-35.54-35.54-35.54,15.94-35.54,35.54,15.94,35.54,35.54,35.54h0Zm-.35-34.08h-22.46c-.93,0-1.68-.75-1.68-1.68s.74-1.69,1.68-1.69h20.78v-22.92c0-.93.74-1.69,1.68-1.69s1.68.75,1.68,1.69v24.6c0,.94-.75,1.68-1.68,1.68h0Z"/>
            <path class="cls-3" d="m312.82,575.41h-27.18c-.74,0-1.33-.67-1.33-1.51s.59-1.51,1.33-1.51h27.18c.74,0,1.33.67,1.33,1.51s-.59,1.51-1.33,1.51Z"/>
            <path class="cls-3" d="m305.8,591.65h-30.81c-.84,0-1.51-.67-1.51-1.51s.67-1.51,1.51-1.51h30.81c.84,0,1.51.67,1.51,1.51s-.67,1.51-1.51,1.51Z"/>
            <path class="cls-3" d="m305.8,607.89h-30.81c-.84,0-1.51-.67-1.51-1.51s.67-1.51,1.51-1.51h30.81c.84,0,1.51.67,1.51,1.51s-.67,1.51-1.51,1.51Z"/>
          </g>
          <g>
            <path class="cls-2" d="m206.65,468.76h10.02v6.92h-5.16c-.33,0-.59.27-.59.59s.27.59.59.59h5.16v8.76h-1.36c-.33,0-.59.27-.59.59s.27.59.59.59h1.36v8.76h-5.16c-.33,0-.59.27-.59.59s.27.59.59.59h5.16v8.76h-1.36c-.33,0-.59.27-.59.59s.27.59.59.59h1.36v8.76h-5.16c-.33,0-.59.27-.59.59s.27.59.59.59h5.16v3.24c-1.48-.98-3.25-1.56-5.15-1.56-1.78,0-3.45.51-4.87,1.38v-50.96Z"/>
            <circle class="cls-2" cx="211.52" cy="527.64" r="7.12"/>
            <path class="cls-2" d="m270.15,532.48h-50.69c.86-1.41,1.36-3.07,1.36-4.84,0-1.92-.58-3.7-1.58-5.18h4.12v1.36c0,.33.27.59.59.59s.59-.27.59-.59v-1.36h8.76v5.16c0,.33.27.59.59.59s.59-.27.59-.59v-5.16h8.76v1.36c0,.33.27.59.59.59s.59-.27.59-.59v-1.36h8.76v5.16c0,.33.27.59.59.59s.59-.27.59-.59v-5.16h8.76v1.36c0,.33.27.59.59.59s.59-.27.59-.59v-1.36h5.81v10.02Z"/>
            <g>
              <polygon class="cls-2" points="227.84 482.97 245.04 492.9 245.04 512.76 227.84 502.83 227.84 482.97"/>
              <polygon class="cls-2" points="248.05 512.76 248.05 492.9 265.25 482.97 265.25 502.83 248.05 512.76"/>
              <polygon class="cls-2" points="246.54 471.17 263.74 481.1 246.54 491.03 229.34 481.1 246.54 471.17"/>
            </g>
          </g>
        </g>
      </g>
    </pattern>
  </defs>
  <g id="Layer_1-2" data-name="Layer 1">
    <rect class="cls-1" width="1440" height="1080"/>
    <rect class="cls-6" width="1440" height="1080"/>
  </g>
</svg>