<?xml version="1.0" encoding="UTF-8"?>
<svg id="Layer_2" data-name="Layer 2" xmlns="http://www.w3.org/2000/svg" viewBox="0 0 69.23 66.1">
  <defs>
    <style>
      .cls-1 {
        fill: #272262;
      }
    </style>
  </defs>
  <g id="Layer_1-2" data-name="Layer 1">
    <g>
      <g>
        <path class="cls-1" d="m28.49,50.81c-.33-.02-.63-.06-.93-.06-6.94,0-13.89,0-20.83,0-.71,0-1.41,0-2.12,0-2.28-.04-4.1-1.57-4.53-3.81-.06-.31-.08-.63-.08-.94C0,32.29,0,18.58,0,4.87c0-1.71.65-3.09,2.09-4.06C2.84.3,3.69.04,4.59.03,7.23,0,9.87,0,12.51,0c12.5,0,25,0,37.51,0,4.62,0,9.24,0,13.86,0,1.06,0,2.1.11,3.03.67,1.44.87,2.21,2.16,2.32,3.85,0,.14.02.29.02.43,0,13.67,0,27.34,0,41.01,0,2.11-1.19,3.87-3.1,4.51-.52.17-1.1.27-1.65.27-7.65.02-15.3.01-22.95.01-.21,0-.42.01-.62.05-.05,0-.13.12-.12.16.14.63.28,1.27.46,1.89.54,1.86,1.35,3.6,2.35,5.25,1.19,1.97,2.63,3.74,4.38,5.24.14.12.3.23.44.36.23.2.5.28.8.27.93,0,1.86-.02,2.79,0,.68.01,1.08.48,1.04,1.15-.03.42-.37.79-.87.91-.18.04-.38.06-.56.06-11.32,0-22.64,0-33.96,0-.28,0-.58-.04-.84-.14-.5-.19-.72-.64-.64-1.16.06-.38.49-.78.95-.8.72-.03,1.45-.07,2.17,0,.88.08,1.52-.23,2.16-.81,2.93-2.68,5-5.89,6.31-9.62.24-.68.38-1.39.56-2.09.05-.19.1-.38.17-.64Zm38.58-12.61c0-.09,0-.14,0-.2,0-5.18,0-10.36,0-15.54,0-5.38,0-10.76,0-16.14,0-.67.02-1.34,0-2-.02-.57-.29-1.04-.68-1.44-.59-.6-1.34-.74-2.14-.74-14.93,0-29.86,0-44.79,0-4.84,0-9.68,0-14.51,0-.59,0-1.18.08-1.69.42-.74.49-1.12,1.2-1.13,2.08-.02,2.11,0,4.21,0,6.32,0,8.78,0,17.56,0,26.34,0,.3.03.59.04.9h64.91Zm-.02,2.13c-.26,0-.51,0-.76,0-19.6,0-39.2,0-58.8,0-1.68,0-3.36,0-5.04,0-.16,0-.33-.02-.33.24,0,1.89-.02,3.78.02,5.67.02,1.3,1.05,2.31,2.35,2.38.51.03,1.03.02,1.54.02,13.13,0,26.26,0,39.39,0,6.31,0,12.62,0,18.93-.01.47,0,.97-.09,1.39-.28.99-.46,1.38-1.31,1.36-2.39-.02-1.78-.02-3.56-.03-5.34,0-.08,0-.16-.02-.29Zm-21.58,23.62c-.15-.2-.25-.33-.36-.46-.58-.68-1.21-1.32-1.75-2.03-1.19-1.54-2.18-3.21-2.97-4.99-.76-1.7-1.37-3.46-1.67-5.3-.07-.41-.06-.41-.49-.41-.91,0-1.83,0-2.74,0-1.51,0-3.02,0-4.53,0-.41,0-.39,0-.46.39-.14.7-.26,1.4-.46,2.09-.81,2.83-2.11,5.43-3.86,7.8-.69.93-1.48,1.77-2.22,2.66-.06.08-.11.16-.18.26h21.69Z"/>
        <path class="cls-1" d="m67.05,40.33c0,.13.02.21.02.29,0,1.78.01,3.56.03,5.34.01,1.07-.37,1.93-1.36,2.39-.42.19-.92.28-1.39.28-6.31.02-12.62.01-18.93.01-13.13,0-26.26,0-39.39,0-.51,0-1.03.01-1.54-.02-1.31-.07-2.33-1.08-2.35-2.38-.03-1.89,0-3.78-.02-5.67,0-.26.16-.24.33-.24,1.68,0,3.36,0,5.04,0,19.6,0,39.2,0,58.8,0,.25,0,.5,0,.76,0Zm-32.62,5.23c.73-.07,1.26.06,1.77-.17.44-.21.64-.51.61-1.04-.03-.47-.26-.81-.74-.87-.56-.08-1.13-.08-1.7-.09-.4,0-.82,0-1.21.08-.47.1-.72.48-.73.95,0,.51.23.88.71.99.49.1,1,.12,1.29.15Z"/>
        <path class="cls-1" d="m45.46,63.95h-21.69c.07-.1.12-.19.18-.26.74-.88,1.54-1.73,2.22-2.66,1.75-2.36,3.04-4.97,3.86-7.8.2-.68.32-1.39.46-2.09.07-.38.06-.39.46-.39,1.51,0,3.02,0,4.53,0,.91,0,1.83,0,2.74,0,.43,0,.42,0,.49.41.3,1.85.91,3.6,1.67,5.3.79,1.78,1.78,3.45,2.97,4.99.54.71,1.17,1.35,1.75,2.03.11.13.21.26.36.46Z"/>
        <path class="cls-1" d="m39.48,32.71s.05,0,.08,0c.08-.14.17-.27.25-.41.48-.87.94-1.75,1.43-2.61.39-.69,1.11-.78,1.68-.24.52.49,1.02,1,1.53,1.5,1.62,1.6,3.25,3.2,4.87,4.8.24.24.33.25.58.01.4-.38.79-.77,1.17-1.17.09-.1.14-.24.2-.34-.18-.17-.34-.31-.48-.46-1.15-1.15-2.31-2.29-3.46-3.44-.91-.91-1.81-1.81-2.71-2.74-.41-.43-.34-1.09.12-1.46.13-.1.27-.19.41-.26.92-.5,1.84-1,2.76-1.5.08-.04.14-.12.21-.19-.07-.05-.14-.11-.21-.14-.71-.25-1.42-.49-2.12-.73-.92-.32-1.83-.64-2.75-.95-.59-.2-1.19-.38-1.78-.57-.96-.32-1.92-.64-2.87-.96-.62-.21-1.23-.42-1.85-.62-.42-.14-.85-.27-1.3-.41,1.43,4.34,2.84,8.62,4.25,12.9Z"/>
        <path class="cls-1" d="m19.02,17.38c-3.51,0-7.02,0-10.52,0-.38,0-.76,0-1.09-.25-.22-.16-.36-.36-.37-.63-.01-.41-.03-.81-.03-1.22,0-2.26,0-4.52,0-6.78,0-.42.05-.83.45-1.03.27-.14.6-.21.9-.21,2.52-.02,5.04,0,7.57,0,4.59,0,9.19,0,13.78,0,.73,0,1.15.26,1.3.82.03.12.04.25.04.38,0,2.4,0,4.81,0,7.21,0,.19,0,.38-.01.57-.05.76-.42,1.14-1.19,1.15-1.06.01-2.12,0-3.17,0-2.55,0-5.1,0-7.65,0h0Z"/>
        <path class="cls-1" d="m18.64,25.96c3.55,0,7.11,0,10.66,0,.79,0,1.29.53,1.18,1.24-.07.43-.43.8-.86.86-.2.03-.4.04-.59.04-6.9,0-13.8,0-20.7,0-.39,0-.79.02-1.15-.23-.37-.27-.47-.63-.41-1.05.06-.4.42-.75.8-.82.13-.02.27-.04.4-.04,3.55,0,7.11,0,10.66,0h0Z"/>
        <path class="cls-1" d="m18.64,22.65c-3.47,0-6.94,0-10.41,0-.15,0-.31-.02-.46-.01-.55.02-1-.49-1.02-1.01-.02-.5.38-.99.92-1.08.15-.03.31-.03.46-.03,7,0,13.99,0,20.99,0,.75,0,1.12.23,1.34.78.16.41-.16,1.2-.71,1.3-.23.04-.47.05-.7.05-3.47,0-6.94,0-10.41,0,0,0,0,0,0,0Z"/>
        <path class="cls-1" d="m18.59,31.35c3.52,0,7.05,0,10.57,0,.74,0,1.09.23,1.3.83.12.34-.07.94-.4,1.08-.29.12-.62.22-.93.22-4.47.01-8.95,0-13.42,0-2.49,0-4.97,0-7.46,0-.22,0-.43-.01-.65-.05-.5-.08-.87-.54-.86-1.03.02-.53.42-.97.94-1.03.19-.02.38-.02.57-.02,3.44,0,6.89,0,10.33,0,0,0,0,0,0,0Z"/>
      </g>
      <g>
        <path class="cls-1" d="m56.81,5.86c-.11.66-.57,2.51-1.81,3.94-1.43,1.64-3.52,2.05-4.15,2.2.61.1,2.42.48,3.97,2.05,1.52,1.54,1.89,3.3,1.99,3.92.06-.61.3-2.19,1.52-3.63,1.67-1.96,3.94-2.23,4.44-2.28-.62-.08-2.3-.38-3.8-1.76-1.85-1.72-2.11-3.9-2.16-4.44Z"/>
        <path class="cls-1" d="m51.63,4.93c-.05.28-.24,1.06-.76,1.66-.6.69-1.49.86-1.75.93.26.04,1.02.2,1.68.87.64.65.8,1.39.84,1.66.03-.26.12-.92.64-1.53.7-.83,1.66-.94,1.87-.96-.26-.03-.97-.16-1.6-.75-.78-.73-.89-1.65-.91-1.88Z"/>
        <path class="cls-1" d="m49.11,11.91c-.07.42-.36,1.58-1.14,2.48-.9,1.03-2.21,1.29-2.61,1.38.39.06,1.52.3,2.5,1.29.96.97,1.19,2.08,1.25,2.47.04-.39.19-1.38.96-2.28,1.05-1.23,2.48-1.4,2.79-1.43-.39-.05-1.45-.24-2.39-1.11-1.17-1.08-1.33-2.45-1.36-2.79Z"/>
      </g>
    </g>
  </g>
</svg>