<?xml version="1.0" encoding="UTF-8"?>
<svg id="Layer_2" data-name="Layer 2" xmlns="http://www.w3.org/2000/svg" viewBox="0 0 102.64 57.33">
  <defs>
    <style>
      .cls-1 {
        fill: #272262;
      }

      .cls-2 {
        fill: #fdfdfd;
      }
    </style>
  </defs>
  <g id="Layer_1-2" data-name="Layer 1">
    <g>
      <path class="cls-1" d="m89.7,24.34c-.34-.31-.67-.4-1.12-.41-.77.15-1.86.49-2.31,1.18-.27.41-.34.93-.23,1.4.1.43.34.81.73,1.04.27.17.53.23.84.21.72-.02,1.83-.28,2.34-.83.3-.32.39-.75.37-1.17-.02-.53-.22-1.06-.62-1.42Zm-1.21,2.61c-.2.26-.44.37-.76.42-.16.06-.49,0-.65-.08-.29-.13-.48-.38-.59-.67-.15-.37-.16-.8,0-1.17.15-.32.37-.43.68-.55.34-.05.62-.05.91.15.32.22.53.58.6.96.06.32,0,.67-.19.93Zm1.31-.43c-.15.26-.35.39-.63.47l-.15.09s.23-.83.15-1.2c-.14-.65-.64-1.03-1.17-1.37l.31-.12c.28-.04.53-.07.8.06.38.18.64.57.76.96.11.36.12.77-.07,1.11Z"/>
      <path class="cls-1" d="m95.74,25.69c-.52-.11-1.19-.21-1.72-.22-.34.32-.05,2.51-.31,3.14.58.05,1.24.08,1.8.22l.15-.07c.12-.39.22-2.78.08-3.08Zm-.57,2.66c-.34,0-.71-.07-1.05-.12.14-.27.12-.66.1-.96.32-.02.7.05,1.02.12.02.05.04.09.05.14.05.26.04.61-.11.83Z"/>
      <path class="cls-1" d="m84.88,32.39c.06-.01.12-.02.19-.02.55,0,1.15.13,1.7.21l2.82.43,3.15.46c.42.06.87.08,1.29.17.13.03.17.04.26.13-.01.14-.04.15-.12.25l-.08.03c-.96-.11-8.98-1.29-9.19-1.47v-.21Z"/>
      <path class="cls-1" d="m84.81,34.61c.2-.02,8.76,1.3,9.27,1.45.05.02.09.04.13.07.02.13,0,.13-.08.23-.21.1-8.41-1.23-9.22-1.42-.11-.1-.09-.19-.1-.33Z"/>
      <path class="cls-1" d="m84.88,37.07c.06-.01.12-.02.19-.02.55,0,1.15.13,1.7.21l2.82.43,3.15.46c.42.06.87.08,1.29.17.13.03.17.04.26.13-.01.14-.04.15-.12.25l-.08.03c-.96-.11-8.98-1.29-9.19-1.47v-.21Z"/>
      <path class="cls-1" d="m84.81,39.28c.2-.02,8.76,1.3,9.27,1.45.05.02.09.04.13.07.02.13,0,.13-.08.23-.21.1-8.41-1.23-9.22-1.42-.11-.1-.09-.19-.1-.33Z"/>
      <path class="cls-1" d="m102.56,21.71c-.42-.22-5.54-.67-6.52-.83,0-.04.03-.07.04-.1.08-.28.1-.91-.04-1.17-.59-.18-1.34-.16-1.93-.14-.17-.15.1-1.86-.07-2.23,0,0,0-.02,0-.03.85-.18,2.25-.78,3.1-1.1.03-.05.06-.09.07-.14.14-.5.11-2.23.13-2.86.06-1.79.21-3.61.17-5.39,0-.11-.02-.19-.07-.29-.56-.11-1.22-.09-1.79-.13-1.41-.07-2.81-.15-4.23-.21l-13.29-.72-18.41-1.03c-1.67-.08-3.35-.21-5.03-.31-.79-.05-1.62-.12-2.42-.1-.65.02-1.3.16-1.94.26-.91.15-1.81.29-2.72.43l-5.09.73c-.94.14-2.01.21-2.92.52-.03.21-.03.44-.04.65l-4.43-.31c-.19-2.1-.83-4.01-2.34-5.54-1-1.04-2.3-1.64-3.75-1.65-.09,0-.19,0-.27,0-.09,0-.18,0-.27,0-.09,0-.18.02-.27.04-.08,0-.18.02-.26.04-.09.02-.18.04-.26.06-.09.02-.18.05-.26.07-.09.02-.18.05-.26.07-.08.04-.17.07-.25.09-.08.04-.17.07-.24.11-.08.04-.17.07-.24.12-.08.04-.16.08-.24.13-.07.05-.15.09-.22.14-.07.05-.15.1-.22.15-.07.06-.14.11-.21.17-.07.06-.14.11-.21.18-.07.06-.13.12-.2.18-2.13,2.12-2.37,4.74-2.42,7.6-.02,1.17-.03,2.34-.03,3.51.27.02.59-.03.85.03.13.03.16.07.22.19-.02.17-.07.29-.2.41-.64.65-1.89.68-2.74.69-.04-.58-.06-1.17-.06-1.75l.41-.16c.17-2.32.47-4.63.69-6.94-.93-.08-1.89-.06-2.82-.07-1.35-.04-2.72-.11-4.07-.05-.18,2.09-.55,4.19-.67,6.27.56.33,2.37,1.07,3,1.25.05.63,0,1.28,0,1.92-.46.11-.91.21-1.37.2-.58-.02-1.14-.16-1.72-.09-1.12.12-2.24.37-3.36.56-1.33.22-2.69.4-4.01.7,0,1.39.09,2.79.13,4.18-1.2.17-2.38.45-3.57.69-1.13.22-2.29.43-3.4.76,0,1.37.1,2.76.17,4.14.53.21.85.32,1.44.24.16,1.38.75,14.29.95,14.53.15.19.56.23.79.29.92.22,1.81.5,2.72.75,1.3.34,2.61.64,3.88,1.04.39-.14.79-.29,1.17-.42l-.02-.55-.71-13.52c-.07-.41-.05-.83-.08-1.25l7.47,1.45c1.09.21,2.2.38,3.28.64l.03.95c.19,3.7.35,7.4.47,11.11.04.97.08,1.94.13,2.92.03.5.07,1.01.06,1.51.07.4.06.81.07,1.22,1.51.49,3.06.85,4.58,1.26,2.01.55,4.01,1.14,6.02,1.65.39-.19.79-.36,1.19-.53v-1.04l-.21-8.49c-.05-1.82-.13-3.65-.12-5.47-.12-.91-.07-1.86-.1-2.78,1.65.36,3.32.62,4.97.93,1.93.36,3.89.79,5.82,1.03.16.58.13,1.47.11,2.08l.27,17.45c0,.29.03.59.04.88,1.37.31,2.75.71,4.1,1.09,3.3.92,6.59,1.93,9.91,2.76.41-.26.82-.51,1.24-.76,0-.37,0-.77.02-1.14.08-1.42.02-2.88.02-4.31,0-2.91,0-5.82.06-8.74-.1-1.63,0-3.31,0-4.95,12.7,2.59,25.43,5.1,38.17,7.54.32-.14,3.68-2.53,3.8-2.73.04-.06.02-.07,0-.12,0-.03.03-.06.03-.08.11-.44.07-1.01.09-1.46l.18-3.6.4-9.23c.08-1.92.21-3.85.23-5.77,0-.11-.02-.19-.07-.29Zm-7.24-5.53c.13-.45.1-2.13.12-2.73l.13-3.45c.03-.6.07-1.22.06-1.82,0-.1-.02-.18-.07-.27.27-.02.54-.05.81-.07l.66-.05s0,.03.04.08c.11.31-.18,6.86-.23,7.59,0,.12-.04.22-.08.34-.23.17-.68.29-.96.36-.17.11-.36.14-.55.19.03-.06.06-.1.07-.16ZM52.77,5.31c2.68.07,5.37.3,8.06.45l14.6.84c6.59.4,13.19.65,19.77,1.1.02.04.03.05.04.08.06.15-.22,7.64-.29,8.44,0,.08-.03.16-.07.23-.24.2-.67.29-.98.36-.38.23-1.01.36-1.44.51-.66.21-1.36.52-2.05.64-.73.13-2.68-.15-3.5-.22.03-.07.06-.15.07-.23.06-.44.05-.89.07-1.34.1-1.5.27-3.02-.73-4.3-.46-.6-1.19-1.1-1.94-1.29-.78-.19-1.73-.16-2.53-.21l-5.39-.36-13.48-.9c-2.19-.13-4.37-.27-6.56-.43-1.22-.08-2.45-.14-3.66-.29v-3.09Zm34.11,12.91c.22-.03.4-.02.63,0,.13.36.08,1.08.04,1.46-.03.18-.04.21-.18.31l-.66-.07c.21-.34.25-1.33.18-1.71ZM40.06,7.13c.07-.05.15-.08.24-.1,1.64-.31,3.32-.47,4.97-.71,2.29-.34,4.58-.73,6.88-1.03h.11c.2.2.11,2.62.11,3.08-1.16-.04-2.31-.17-3.47-.22v-1.61c-2.31.21-4.65.64-6.95.99-.46.13-1.03.14-1.5.08-.21-.03-.35-.07-.49-.23,0-.13,0-.14.07-.25Zm8.42.98c-1.54-.03-3.11-.2-4.66-.28l-.3-.05v.06s-.02-.06-.02-.06h-.04s.03-.02.03-.02v.02h.03v-.07c.57-.14,1.2-.18,1.77-.26,1.05-.16,2.09-.33,3.14-.51l.03.03c.08.34.03.8.02,1.15Zm-6.96,6.71l23.99,2.51c4.22.45,8.44.84,12.65,1.33.2.03.55.1.72-.02l-.02-.14c.07-.09.1-.15.13-.26.1-.46.12-.93.18-1.39.16-1.14.31-2.31.57-3.43.1-.45.21-.85.43-1.26.1-.2.25-.39.32-.6,0-.02.02-.05.02-.07.34-.16.52-.4.91-.5.34-.24.76-.15,1.15-.16,1.24.04,2.33.07,3.23,1.06.81.87,1.01,2.03.96,3.17-.03.63-.24,4.65-.43,4.9-.77.35-1.62.56-2.4.84-.4.15-.77.34-1.15.5.07.33.07,1-.07,1.29-.38-.09-.81-.1-1.21-.15l-2.71-.34s.06-.08.07-.14c.07-.3.17-1.16.02-1.42-.34-.18-9.36-1.12-10.64-1.26l-22.6-2.63-8.7-.98c-2.65-.29-5.33-.54-7.96-.92l.03-1.08c1.78.21,3.58.32,5.37.48l7.17.69Zm1.69,2.37c-3.44-.37-6.87-.77-10.3-1.19-.58-.07-3.66-.35-3.89-.45-.1-.15-.08-.24-.09-.43,1.48.1,2.96.32,4.43.5l6.49.72,22.52,2.63,13.24,1.54c.59.07,2.48.17,2.86.35.06.03.07.04.09.1.04.14-.02.31-.09.43l-.06.03c-3.78-.38-7.54-.9-11.31-1.35l-23.88-2.88Zm-14.55-3.91c-.05.8-.07,1.6-.09,2.4-.77.17-1.55.31-2.33.42.08-.97.14-1.95.18-2.94.07-1.71-.1-4.08,1.21-5.39.72-.73,1.26-.55,2.21-.55l.13.07c-.07.2-.26.31-.37.49-.98,1.44-.92,3.81-.93,5.5Zm5.22-6.17c-.11,0-.23,0-.36-.02-.16-.02-.23-.07-.33-.2l.02-.1c.23-.28.52-.31.86-.37.18-.02.36-.02.53-.02.05.24.07.5.11.74l-.84-.03Zm.73-.88c-.44,0-.86.11-1.29.22h-.03c-.17-.11-.36-1.08-.43-1.35.4-.22.79-.44,1.22-.6.29.24.45,1.36.53,1.73Zm-.54-1.9c-.4.16-.78.37-1.15.58l-.08.02c-.21-.14-.6-1.09-.73-1.36.04-.05.07-.08.11-.12.04-.04.08-.07.12-.1.05-.04.08-.07.13-.1.05-.03.08-.06.13-.09.05-.03.09-.06.14-.07.06-.03.1-.06.15-.07.05-.02.1-.05.15-.07.06,0,.1-.03.16-.05.37.21.69,1.06.87,1.44Zm-.9-1.57c-.46.18-.83.37-1.16.76l-.34-.41c-.21-.23-.46-.43-.7-.64.2-.31.42-.62.54-.96-.22.29-.43.6-.63.91-.46-.24-.88-.43-1.4-.53.12-.47.23-.94.4-1.4,1.44.36,2.43,1.08,3.28,2.29Zm-5.2-2.18c.16-.12.27-.11.47-.13.41-.08.89-.03,1.3,0-.07.34-.18,1.12-.38,1.36h-.1c-.43-.03-.87.05-1.29.11,0-.43-.19-.93,0-1.34Zm-.31,0h.06c.12.18.17,1.09.21,1.37-.4.13-.76.4-1.16.5l-.1-.08c-.24-.33-.4-.69-.57-1.06.46-.36,1.02-.55,1.56-.74Zm-1.69.81c.22.21.48.85.72,1.17-.27.22-.78.92-1.03,1.01l-.1-.09c-.3-.33-.6-.52-1.01-.68.44-.53.88-.98,1.42-1.4Zm-1.43,1.48c.45.11.8.52,1.12.85-.21.35-.37.85-.66,1.12l-1.26-.47c.21-.54.48-1.02.8-1.5Zm-.87,1.61c.43.2.91.34,1.36.5-.13.49-.27.97-.35,1.47-.46-.07-.93-.12-1.39-.18.09-.61.21-1.21.38-1.79Zm-.5,3.11c.03-.4.06-.8.11-1.21.46.04.93.14,1.38.21-.04.35-.05.69-.06,1.04-.48,0-.96-.02-1.44-.04Zm1.48,5.64c.04-.18-.03-.34.04-.51.31-.08.3-.24.3-.52.04-2.47-.41-6.11.99-8.24.65-.98,1.5-1.47,2.63-1.71.79-.05,1.56.11,2.22.61,1.32.98,1.84,2.63,2.06,4.19-1.22-.1-2.47-.21-3.69-.25-.67-.03-1.26.18-1.76.65-1.4,1.32-1.3,3.49-1.36,5.25,0,.67-.05,1.34-.07,2.01-.92-.06-1.83-.18-2.75-.24.51-.25,1.26-.59,1.4-1.22Zm-9.94-2.11c.24-1.89.34-3.82.65-5.7,2.02.03,4.03.07,6.05.11-.22,1.54-.36,3.13-.51,4.68-.04.37-.04,1.24-.17,1.56-.03.07-.15.09-.22.12-2.63.73-3.44.18-5.8-.78Zm-1.83,4.06c.54-.08,1.1-.2,1.65-.21,1.41-.05,2.88.39,4.29.48,1.02.06,3.19-.41,4.23-.64.93.07,1.84.16,2.76.27-1.71.51-3.97.79-5.76,1.1l-2.34.43c-.43.07-.89.19-1.33.19-.51,0-1.07-.1-1.57-.17l-3.37-.37c-.96-.14-1.93-.21-2.9-.33,1.44-.17,2.9-.51,4.33-.75Zm12.91,1.06c-2.99.63-6.03,1.17-9.04,1.73-.06,0-.07,0-.12-.04-.06-.23-.03-.5-.02-.74.89-.11,1.77-.33,2.65-.49,2.12-.38,4.25-.79,6.38-1.12.07,0,.1,0,.17,0,.07.19,0,.44-.02.64Zm-15.75.22c2.04.22,4.08.46,6.11.72v.93c-.45.12-.92.21-1.38.29-2.46.52-4.93,1.03-7.39,1.51-.1-1.23-.12-2.5-.17-3.74.93.03,1.9.19,2.83.29Zm-5.12,8.19c-1.32.31-2.63.64-3.95.93-.11-.44-.08-1-.1-1.46-.03-.8-.07-1.61-.11-2.41,2.03-.47,4.07-.85,6.09-1.27,2.94-.63,5.9-1.23,8.85-1.8,4.46-.93,8.93-1.8,13.4-2.65h.14c.15.24.06,2.51.05,2.97-5.01,1.12-10.02,2.28-15.03,3.46-3.1.78-6.22,1.51-9.34,2.22Zm53.57,8.64c-1.11.57-2.33.92-3.45,1.45-2.02-.31-4.03-.76-6.04-1.14-2.09-.4-37.24-7.59-39.33-8.05,0-.75.02-.19,0-.93,2.07.49,37.22,6.3,39.31,6.66,1.88.32,3.75.73,5.64,1.03.15.02.33.07.48.02.06-.05.11-.09.18-.12,1.1-.53,2.34-.92,3.49-1.37,2.96-1.18,5.93-2.34,8.9-3.48l8.02-3.11c1.23-.48,2.47-1,3.72-1.41.32-.1.67-.24,1-.11h.27c.14.19.04,1.05.02,1.3,0,.07-.04.12-.07.19-.42.32-2.43,1.03-3.02,1.26l-15.12,6.15c-.59.24-3,1.33-3.32,1.36m39.51-7.95l-.16,3.54-.58,12.11c-.03.68-.04,3.22-.17,3.7-.02.07-.06.12-.09.18-.93-.16-1.87-.36-2.8-.53-.39-.14-.88-.2-1.29-.28l-3.39-.67-7.74-1.54c-1.15-.22-2.3-.5-3.46-.68.02-.03.04-.07.05-.09.12-.35.09-2.73.1-3.32l.19-8.48c0-.52.19-3.47.03-3.79.51-.13,1.23-.42,1.67-.7.02-.02.04-.06.05-.08.1-.28.12-1.37,0-1.63.53.05,1.29.31,1.8.15.13-.05.24-.12.3-.24.1-.23.02-.77-.07-1,.62-.13,4.22.46,5.07.56l10.48,1.24c.04.06.06.12.07.19.06.42-.02.94-.04,1.36Zm3.01-3.02c-.3.22-2.42,1.02-2.79,1.05-.96.07-3.08-.33-4.14-.45l-6.48-.76c-1.54-.19-3.07-.41-4.61-.57.98-.22,1.91-.78,2.89-.93.63-.1,2.58.22,3.33.31,1.2.14,2.4.24,3.6.39.18.03.42.04.54.19.26.17,1.26.26,1.58.21.03,0,.07-.02.09-.03l.03-.07c.48-.2,5.14.5,6.02.6t-.07.07Z"/>
      <polygon class="cls-2" points="43.51 7.79 43.48 7.78 43.5 7.77 43.51 7.79"/>
      <polygon class="cls-2" points="43.53 7.79 43.52 7.84 43.51 7.79 43.53 7.79"/>
      <path class="cls-1" d="m20.82,6.03c-.12,1.49-.25,2.97-.41,4.46-1.71-.01-3.42-.11-5.13-.17.14-1.47.33-2.95.4-4.42h.72s3.07.08,3.07.08c.41,0,.96-.04,1.35.05Z"/>
      <path class="cls-2" d="m20.4,14.52s-.03,0-.04,0c0,0,0,0,0-.02h.03Z"/>
    </g>
  </g>
</svg>