<?xml version="1.0" encoding="UTF-8"?>
<svg id="Layer_2" data-name="Layer 2" xmlns="http://www.w3.org/2000/svg" viewBox="0 0 62.86 62.84">
  <defs>
    <style>
      .cls-1 {
        fill: #272262;
      }
    </style>
  </defs>
  <g id="Layer_1-2" data-name="Layer 1">
    <g>
      <path class="cls-1" d="m56.33,19.46h-5.8V1.21c0-.67-.54-1.21-1.21-1.21H13.54c-.67,0-1.21.54-1.21,1.21v18.25h-5.8c-3.6,0-6.53,2.93-6.53,6.53v19.58c0,3.6,2.93,6.53,6.53,6.53h5.8v9.53c0,.67.54,1.21,1.21,1.21h35.78c.67,0,1.21-.54,1.21-1.21v-9.53h5.8c3.6,0,6.53-2.93,6.53-6.53v-19.58c0-3.6-2.93-6.53-6.53-6.53Zm-47.9,7.22h3.87c.67,0,1.21.54,1.21,1.21s-.54,1.21-1.21,1.21h-3.87c-.67,0-1.21-.54-1.21-1.21s.54-1.21,1.21-1.21ZM14.75,2.42h33.36v17.04H14.75V2.42Zm33.36,58H14.75v-17.9h33.36v17.9Z"/>
      <path class="cls-1" d="m20.28,49.39h22.3c.67,0,1.21-.54,1.21-1.21s-.54-1.21-1.21-1.21h-22.3c-.67,0-1.21.54-1.21,1.21s.54,1.21,1.21,1.21Z"/>
      <path class="cls-1" d="m20.28,55.96h22.3c.67,0,1.21-.54,1.21-1.21s-.54-1.21-1.21-1.21h-22.3c-.67,0-1.21.54-1.21,1.21s.54,1.21,1.21,1.21Z"/>
    </g>
  </g>
</svg>