<?xml version="1.0" encoding="UTF-8"?>
<svg id="Layer_2" data-name="Layer 2" xmlns="http://www.w3.org/2000/svg" viewBox="0 0 65.75 66">
  <defs>
    <style>
      .cls-1 {
        fill: #272262;
      }
    </style>
  </defs>
  <g id="Layer_1-2" data-name="Layer 1">
    <g>
      <path class="cls-1" d="m2.25,0h10.02v6.92h-5.16c-.33,0-.59.27-.59.59s.27.59.59.59h5.16v8.76h-1.36c-.33,0-.59.27-.59.59s.27.59.59.59h1.36v8.76h-5.16c-.33,0-.59.27-.59.59s.27.59.59.59h5.16v8.76h-1.36c-.33,0-.59.27-.59.59s.27.59.59.59h1.36v8.76h-5.16c-.33,0-.59.27-.59.59s.27.59.59.59h5.16v3.24c-1.48-.98-3.25-1.56-5.15-1.56-1.78,0-3.45.51-4.87,1.38V0Z"/>
      <circle class="cls-1" cx="7.12" cy="58.88" r="7.12"/>
      <path class="cls-1" d="m65.75,63.72H15.06c.86-1.41,1.36-3.07,1.36-4.84,0-1.92-.58-3.7-1.58-5.18h4.12v1.36c0,.33.27.59.59.59s.59-.27.59-.59v-1.36h8.76v5.16c0,.33.27.59.59.59s.59-.27.59-.59v-5.16h8.76v1.36c0,.33.27.59.59.59s.59-.27.59-.59v-1.36h8.76v5.16c0,.33.27.59.59.59s.59-.27.59-.59v-5.16h8.76v1.36c0,.33.27.59.59.59s.59-.27.59-.59v-1.36h5.81v10.02Z"/>
      <g>
        <polygon class="cls-1" points="23.44 14.21 40.64 24.14 40.64 44 23.44 34.07 23.44 14.21"/>
        <polygon class="cls-1" points="43.64 44 43.64 24.14 60.84 14.21 60.84 34.07 43.64 44"/>
        <polygon class="cls-1" points="42.14 2.41 59.34 12.34 42.14 22.27 24.94 12.34 42.14 2.41"/>
      </g>
    </g>
  </g>
</svg>