<?xml version="1.0" encoding="UTF-8"?>
<svg id="Layer_2" data-name="Layer 2" xmlns="http://www.w3.org/2000/svg" viewBox="0 0 88.13 55.15">
  <defs>
    <style>
      .cls-1 {
        fill: #272262;
        fill-rule: evenodd;
      }
    </style>
  </defs>
  <g id="Layer_1-2" data-name="Layer 1">
    <g>
      <path class="cls-1" d="m60.56,55.15c-15.21,0-27.57-12.37-27.57-27.57S45.35,0,60.56,0s27.57,12.37,27.57,27.57-12.37,27.57-27.57,27.57h0Zm-.27-26.44c.72,0,1.3-.58,1.3-1.31V8.31c0-.73-.58-1.31-1.3-1.31s-1.3.58-1.3,1.31v17.78h-16.13c-.72,0-1.3.58-1.3,1.31s.58,1.31,1.3,1.31h17.43Z"/>
      <path class="cls-1" d="m30.52,9.85H9.43c-.57,0-1.03-.52-1.03-1.17s.46-1.17,1.03-1.17h21.08c.57,0,1.03.52,1.03,1.17s-.46,1.17-1.03,1.17Z"/>
      <path class="cls-1" d="m25.07,22.45H1.17c-.65,0-1.17-.52-1.17-1.17s.52-1.17,1.17-1.17h23.9c.65,0,1.17.52,1.17,1.17s-.52,1.17-1.17,1.17Z"/>
      <path class="cls-1" d="m25.07,35.04H1.17c-.65,0-1.17-.52-1.17-1.17s.52-1.17,1.17-1.17h23.9c.65,0,1.17.52,1.17,1.17s-.52,1.17-1.17,1.17Z"/>
      <path class="cls-1" d="m30.52,47.64H9.43c-.57,0-1.03-.52-1.03-1.17s.46-1.17,1.03-1.17h21.08c.57,0,1.03.52,1.03,1.17s-.46,1.17-1.03,1.17Z"/>
    </g>
  </g>
</svg>